<svg width="512" height="512" viewBox="0 0 512 512" fill="none" xmlns="http://www.w3.org/2000/svg">
<circle cx="256" cy="256" r="256" fill="#F4F4F4"/>
<path d="M386.593 371.452C239.777 441.324 148.662 382.864 90.3364 347.357C86.7272 345.119 80.5929 347.88 85.9153 353.994C105.346 377.555 169.027 434.343 252.148 434.343C335.326 434.343 384.81 388.957 391 381.04C397.148 373.189 392.805 368.859 386.591 371.452H386.593ZM427.826 348.681C423.883 343.547 403.852 342.59 391.245 344.139C378.62 345.643 359.668 353.359 361.316 357.992C362.161 359.728 363.887 358.949 372.561 358.169C381.258 357.302 405.622 354.227 410.699 360.863C415.8 367.546 402.928 399.38 400.577 404.514C398.306 409.648 401.445 410.972 405.711 407.552C409.919 404.134 417.537 395.282 422.648 382.756C427.725 370.16 430.821 352.59 427.824 348.681H427.826Z" fill="#FF9900"/>
<path fill-rule="evenodd" clip-rule="evenodd" d="M287.876 228.879C287.876 247.213 288.339 262.502 279.072 278.783C271.593 292.021 259.746 300.162 246.509 300.162C228.439 300.162 217.916 286.395 217.916 266.076C217.916 225.966 253.854 218.687 287.876 218.687V228.879ZM335.33 343.581C332.219 346.36 327.719 346.559 324.211 344.705C308.592 331.733 305.811 325.71 297.207 313.333C271.395 339.676 253.127 347.551 219.637 347.551C180.058 347.551 149.215 323.128 149.215 274.217C149.215 236.028 169.932 210.016 199.383 197.309C224.932 186.056 260.607 184.071 287.876 180.961V174.872C287.876 163.685 288.735 150.449 282.183 140.786C276.424 132.115 265.438 128.541 255.774 128.541C237.838 128.541 221.821 137.74 217.916 156.802C217.121 161.039 214.011 165.209 209.775 165.407L164.106 160.51C160.268 159.648 156.033 156.538 157.091 150.647C167.615 95.3163 217.584 78.6362 262.325 78.6362C285.226 78.6362 315.142 84.7259 333.211 102.067C356.112 123.445 353.927 151.971 353.927 183.012V256.347C353.927 278.387 363.061 288.049 371.665 299.964C374.709 304.199 375.372 309.297 371.532 312.472C361.935 320.48 344.859 335.373 335.462 343.713L335.329 343.581" fill="black"/>
<path d="M386.593 371.452C239.777 441.324 148.662 382.864 90.3364 347.357C86.7272 345.119 80.5929 347.88 85.9153 353.994C105.346 377.555 169.027 434.343 252.148 434.343C335.326 434.343 384.81 388.957 391 381.04C397.148 373.189 392.805 368.859 386.591 371.452H386.593ZM427.826 348.681C423.883 343.547 403.852 342.59 391.245 344.139C378.62 345.643 359.668 353.359 361.316 357.992C362.161 359.728 363.887 358.949 372.561 358.169C381.258 357.302 405.622 354.227 410.699 360.863C415.8 367.546 402.928 399.38 400.577 404.514C398.306 409.648 401.445 410.972 405.711 407.552C409.919 404.134 417.537 395.282 422.648 382.756C427.725 370.16 430.821 352.59 427.824 348.681H427.826Z" fill="#FF9900"/>
<path fill-rule="evenodd" clip-rule="evenodd" d="M287.876 228.879C287.876 247.213 288.339 262.502 279.072 278.783C271.593 292.021 259.746 300.162 246.509 300.162C228.439 300.162 217.916 286.395 217.916 266.076C217.916 225.966 253.854 218.687 287.876 218.687V228.879ZM335.33 343.581C332.219 346.36 327.719 346.559 324.211 344.705C308.592 331.733 305.811 325.71 297.207 313.333C271.395 339.676 253.127 347.551 219.637 347.551C180.058 347.551 149.215 323.128 149.215 274.217C149.215 236.028 169.932 210.016 199.383 197.309C224.932 186.056 260.607 184.071 287.876 180.961V174.872C287.876 163.685 288.735 150.449 282.183 140.786C276.424 132.115 265.438 128.541 255.774 128.541C237.838 128.541 221.821 137.74 217.916 156.802C217.121 161.039 214.011 165.209 209.775 165.407L164.106 160.51C160.268 159.648 156.033 156.538 157.091 150.647C167.615 95.3163 217.584 78.6362 262.325 78.6362C285.226 78.6362 315.142 84.7259 333.211 102.067C356.112 123.445 353.927 151.971 353.927 183.012V256.347C353.927 278.387 363.061 288.049 371.665 299.964C374.709 304.199 375.372 309.297 371.532 312.472C361.935 320.48 344.859 335.373 335.462 343.713L335.329 343.581" fill="black"/>
</svg>
