<svg width="13" height="18" viewBox="0 0 13 18" fill="none" xmlns="http://www.w3.org/2000/svg">
<path d="M10.9824 17.681H3.94675C2.87599 17.681 2.01953 16.7327 2.01953 15.5702L2.01974 4.31315C2.01974 3.15068 2.87626 2.20239 3.94696 2.20239H11.0132C12.084 2.20239 12.9404 3.15062 12.9404 4.31315L12.9402 15.5702C12.9097 16.7327 12.0532 17.681 10.9825 17.681H10.9824ZM3.94675 3.21197C3.39624 3.21197 2.93728 3.70145 2.93728 4.3132L2.9375 15.5703C2.9375 16.182 3.39625 16.6715 3.94696 16.6715H11.0132C11.5637 16.6715 12.0227 16.182 12.0227 15.5703V4.3132C12.0227 3.70146 11.5639 3.21197 11.0132 3.21197H3.94675Z" fill="#2A4464"/>
<path d="M0.91775 13.3678H0V2.11076C0 0.948286 0.856516 0 1.92722 0H8.99348V1.00947H1.92722C1.37671 1.00947 0.91775 1.49895 0.91775 2.1107V13.3678Z" fill="#2A4464"/>
</svg>
