<svg width="46" height="40" viewBox="0 0 46 40" fill="none" xmlns="http://www.w3.org/2000/svg">
<path opacity="0.5" d="M3.67077 11.3344C1.3983 15.5455 1.11585 20.7581 2.77205 25.2516C4.42825 29.7452 7.97175 33.4813 12.2984 35.5226C17.0744 37.7823 22.5181 38.0005 27.7948 38.1032C30.8119 38.1674 33.8932 38.1931 36.7691 37.2559C39.6322 36.3186 42.3026 34.2131 43.1115 31.3115C43.6635 29.3472 43.3297 27.2545 42.8419 25.2773C41.3012 19.012 38.13 13.0548 33.3155 8.76664C29.7078 5.55694 25.15 3.33583 20.3355 2.70673C16.2143 2.1675 12.1829 3.41286 8.74208 5.74952C6.63652 7.16179 4.87761 9.08761 3.67077 11.3344Z" fill="url(#paint0_linear_1410_1579)"/>
<path opacity="0.5" d="M43.0732 8.94579C40.5825 4.85022 36.2429 1.97433 31.5311 1.13981C26.8193 0.305293 21.8122 1.46079 17.845 4.15693C13.4798 7.13552 10.5397 11.719 7.77938 16.2125C6.20021 18.7803 4.62104 21.4251 3.97911 24.378C3.33717 27.3309 3.79936 30.6818 5.89208 32.8644C7.30435 34.3281 9.28152 35.1112 11.233 35.689C17.4213 37.5249 24.1617 37.8074 30.2986 35.8302C34.8949 34.3409 39.1188 31.5292 42.0846 27.7032C44.6395 24.4165 45.6024 20.3081 45.3328 16.1612C45.1531 13.6191 44.3827 11.1155 43.0732 8.94579Z" fill="url(#paint1_linear_1410_1579)"/>
<path d="M11.1711 8.71331C7.5249 13.3995 6.81877 19.8702 3.17255 24.5692C2.44074 25.5193 1.59338 26.3795 0.951446 27.3809C0.309507 28.3823 -0.139849 29.5891 0.0398943 30.7703C0.283831 32.3238 1.52919 33.505 2.77455 34.455C5.29095 36.368 8.14116 37.8445 11.1583 38.7945C21.8145 42.184 34.1525 38.2168 39.532 28.1384C39.8786 27.4708 40.1996 26.7903 40.482 26.097C42.2024 21.7703 42.3822 16.7889 40.6233 12.4751C36.7459 2.97437 24.5234 0.175521 15.8829 4.79748C14.1112 5.74755 12.5192 7.01859 11.261 8.59776C11.2225 8.63627 11.1968 8.67479 11.1711 8.71331Z" fill="url(#paint2_linear_1410_1579)"/>
<path opacity="0.7" d="M21.9806 37.5773C31.1559 37.5773 38.5939 30.1393 38.5939 20.964C38.5939 11.7886 31.1559 4.35059 21.9806 4.35059C12.8052 4.35059 5.36719 11.7886 5.36719 20.964C5.36719 30.1393 12.8052 37.5773 21.9806 37.5773Z" fill="url(#paint3_linear_1410_1579)"/>
<path fill-rule="evenodd" clip-rule="evenodd" d="M20.5163 21.1556V31.3239C20.5163 31.4651 20.6318 31.5935 20.7859 31.5935H24.5605C24.7017 31.5935 24.8301 31.478 24.8301 31.3239V20.9887H27.5648C27.706 20.9887 27.8215 20.886 27.8344 20.7448L28.104 17.6249C28.1168 17.4709 28.0013 17.3425 27.8344 17.3425H24.8301V15.1342C24.8301 14.6207 25.2538 14.197 25.7673 14.197H27.8729C28.0141 14.197 28.1425 14.0814 28.1425 13.9274V10.8204C28.1425 10.6792 28.027 10.5508 27.8729 10.5508H24.3037C22.211 10.5508 20.5163 12.2455 20.5163 14.3382V17.3425H18.629C18.4878 17.3425 18.3594 17.458 18.3594 17.6121V20.7319C18.3594 20.8732 18.4749 21.0015 18.629 21.0015H20.5163V21.1556Z" fill="white"/>
<defs>
<linearGradient id="paint0_linear_1410_1579" x1="6.99999" y1="7.07538" x2="37.8324" y2="37.9078" gradientUnits="userSpaceOnUse">
<stop stop-color="#3C5A99"/>
<stop offset="1" stop-color="#2B1E99"/>
</linearGradient>
<linearGradient id="paint1_linear_1410_1579" x1="45.0515" y1="13.9729" x2="2.85605" y2="24.965" gradientUnits="userSpaceOnUse">
<stop stop-color="#3C5A99"/>
<stop offset="1" stop-color="#2B1E99"/>
</linearGradient>
<linearGradient id="paint2_linear_1410_1579" x1="9.34646" y1="10.3849" x2="33.9733" y2="35.0117" gradientUnits="userSpaceOnUse">
<stop stop-color="#3C5A99"/>
<stop offset="1" stop-color="#2B1E99"/>
</linearGradient>
<linearGradient id="paint3_linear_1410_1579" x1="10.2405" y1="9.22342" x2="33.7305" y2="32.7132" gradientUnits="userSpaceOnUse">
<stop stop-color="#3C5A99"/>
<stop offset="1" stop-color="#2B1E99"/>
</linearGradient>
</defs>
</svg>
