<svg width="37" height="35" viewBox="0 0 37 35" fill="none" xmlns="http://www.w3.org/2000/svg">
<path d="M0.917969 17.12C0.917969 7.66489 8.58285 0 18.038 0H36.6674V17.12C36.6674 26.5751 29.0025 34.24 19.5474 34.24H0.917969V17.12Z" fill="white"/>
<path d="M20.3764 16.4256C20.3764 17.49 19.4755 18.353 18.3639 18.353C17.2526 18.353 16.3516 17.49 16.3516 16.4256C16.3516 15.361 17.2525 14.498 18.3639 14.498C19.4755 14.498 20.3764 15.361 20.3764 16.4256Z" fill="#FF0A62"/>
<path d="M26.3936 10.0005L13.3229 8.5793C12.7944 8.50148 12.2455 8.65712 11.839 8.98823C11.4325 9.29977 11.1682 9.74754 11.1072 10.2537L10.8836 12.0449H10.233C9.15563 12.0449 8.28161 12.9404 8.28161 14.0306V23.4149C8.26134 24.4274 9.09465 25.2841 10.1518 25.3035H23.3648C24.5031 25.3035 25.4788 24.4468 25.4788 23.4149V23.1229C25.7837 23.0645 26.0887 22.9282 26.3528 22.753C26.7593 22.422 27.0236 21.9547 27.0846 21.4485L28.1822 12.1421C28.3043 11.0907 27.5115 10.1172 26.3935 10.0004L26.3936 10.0005ZM24.3203 17.8273V17.9246L19.1774 20.8061C18.7301 21.0592 18.1813 21.0202 17.7747 20.6893L15.1728 18.4892C14.4207 17.8857 13.3433 17.8467 12.5506 18.3918L9.44026 20.5724V14.0306C9.44026 13.6023 9.74512 13.135 10.233 13.135H23.3851C23.8933 13.1544 24.2998 13.5439 24.3405 14.0306V17.8272L24.3203 17.8273ZM27.0239 12.0059L25.9058 21.3318C25.9058 21.5459 25.8041 21.7407 25.6212 21.8769C25.5805 21.9159 25.54 21.9353 25.4789 21.9547V14.0307C25.4382 12.9404 24.5032 12.0643 23.3648 12.0253H12.0423L12.2456 10.3509C12.2863 10.1368 12.4083 9.942 12.5709 9.80578C12.7335 9.68899 12.9367 9.63059 13.1401 9.63059H13.2213L26.2717 11.0714C26.4954 11.0908 26.6987 11.1882 26.8612 11.3634C26.9833 11.5775 27.0645 11.7917 27.024 12.0058L27.0239 12.0059Z" fill="#FF0A62"/>
</svg>
