<svg width="37" height="35" viewBox="0 0 37 35" fill="none" xmlns="http://www.w3.org/2000/svg">
<path d="M0.960938 17.12C0.960938 7.66489 8.62582 0 18.0809 0H36.7104V17.12C36.7104 26.5751 29.0455 34.24 19.5904 34.24H0.960938V17.12Z" fill="white"/>
<path d="M28.3363 16.9646L18.8613 7.8177C18.7931 7.75166 18.712 7.69927 18.6228 7.66352C18.5336 7.62777 18.438 7.60938 18.3414 7.60938C18.2448 7.60938 18.1492 7.62777 18.06 7.66352C17.9708 7.69927 17.8898 7.75166 17.8215 7.8177L8.34652 16.9646C8.07048 17.2313 7.91406 17.5935 7.91406 17.9713C7.91406 18.7558 8.57425 19.3936 9.38627 19.3936H10.3846V25.9205C10.3846 26.3138 10.7136 26.6316 11.1207 26.6316H16.8692V21.6537H19.4456V26.6316H25.5621C25.9693 26.6316 26.2982 26.3138 26.2982 25.9205V19.3936H27.2965C27.6876 19.3936 28.0626 19.2447 28.3386 18.9758C28.9114 18.4202 28.9114 17.5202 28.3363 16.9646Z" fill="#FF0A62"/>
</svg>
