<svg width="46" height="40" viewBox="0 0 46 40" fill="none" xmlns="http://www.w3.org/2000/svg">
<path opacity="0.5" d="M3.67077 10.4613C1.3983 14.6725 1.11585 19.885 2.77205 24.3786C4.42825 28.8721 7.97175 32.6082 12.2984 34.6496C17.0744 36.9092 22.5181 37.1275 27.7948 37.2302C30.8119 37.2944 33.8932 37.3201 36.7691 36.3828C39.6322 35.4456 42.3026 33.34 43.1115 30.4385C43.6635 28.4741 43.3297 26.3814 42.8419 24.4043C41.3012 18.1389 38.13 12.1817 33.3155 7.89359C29.7078 4.6839 25.15 2.46279 20.3355 1.83369C16.2143 1.29446 12.1829 2.53982 8.74208 4.87647C6.63652 6.28874 4.87761 8.21456 3.67077 10.4613Z" fill="#BCD4E7"/>
<path opacity="0.5" d="M43.0732 8.07274C40.5825 3.97717 36.2429 1.10129 31.5311 0.266767C26.8193 -0.567754 21.8122 0.587739 17.845 3.28388C13.4798 6.26248 10.5397 10.8459 7.77938 15.3395C6.20021 17.9072 4.62104 20.552 3.97911 23.505C3.33717 26.4579 3.79936 29.8088 5.89208 31.9914C7.30435 33.455 9.28152 34.2382 11.233 34.8159C17.4213 36.6519 24.1617 36.9343 30.2986 34.9571C34.8949 33.4678 39.1188 30.6561 42.0846 26.8302C44.6395 23.5435 45.6024 19.4351 45.3328 15.2881C45.1531 12.7461 44.3827 10.2425 43.0732 8.07274Z" fill="#BCD4E7"/>
<path d="M11.1711 7.84026C7.5249 12.5264 6.81877 18.9972 3.17255 23.6961C2.44074 24.6462 1.59338 25.5064 0.951446 26.5078C0.309507 27.5093 -0.139849 28.7161 0.0398943 29.8973C0.283831 31.4508 1.52919 32.6319 2.77455 33.582C5.29095 35.495 8.14116 36.9714 11.1583 37.9215C21.8145 41.3109 34.1525 37.3438 39.532 27.2653C39.8786 26.5977 40.1996 25.9172 40.482 25.224C42.2024 20.8973 42.3822 15.9158 40.6233 11.602C36.7459 2.10132 24.5234 -0.697526 15.8829 3.92443C14.1112 4.8745 12.5192 6.14554 11.261 7.72471C11.2225 7.76323 11.1968 7.80174 11.1711 7.84026Z" fill="#B3CAE2"/>
<path opacity="0.7" d="M21.9806 36.7043C31.1559 36.7043 38.5939 29.2662 38.5939 20.0909C38.5939 10.9156 31.1559 3.47754 21.9806 3.47754C12.8052 3.47754 5.36719 10.9156 5.36719 20.0909C5.36719 29.2662 12.8052 36.7043 21.9806 36.7043Z" fill="#C0D8E9"/>
<mask id="mask0_1410_1623" style="mask-type:alpha" maskUnits="userSpaceOnUse" x="9" y="10" width="9" height="18">
<path d="M17.9465 12.039C17.9465 10.9151 17.213 10.2881 16.2192 10.2881C15.2255 10.2881 14.492 10.9151 14.492 12.039V22.8877C14.492 23.6094 14.492 24.7806 13.2024 24.7806C12.1613 24.7806 11.3569 23.9524 10.4341 23.9524C9.67691 23.9524 9.14453 24.7214 9.14453 25.3248C9.14453 27.2769 11.7946 27.892 13.3917 27.892C15.4857 27.892 17.9583 26.8983 17.9583 23.1243V12.039H17.9465Z" fill="#1274C0"/>
</mask>
<g mask="url(#mask0_1410_1623)">
<rect x="4.39844" y="5.53223" width="14.2347" height="22.5383" fill="#1274C0"/>
</g>
<mask id="mask1_1410_1623" style="mask-type:alpha" maskUnits="userSpaceOnUse" x="19" y="10" width="13" height="18">
<path d="M31.0506 12.0863C31.0506 11.0098 30.3526 10.2881 29.3707 10.2881C28.3887 10.2881 27.6907 11.0098 27.6907 12.0863V16.4873C26.8034 15.742 25.6677 15.3634 24.4964 15.3634C20.8881 15.3634 19.0898 18.6287 19.0898 21.7756C19.0898 24.8279 21.2312 27.8684 24.6147 27.8684C25.7623 27.8684 27.0637 27.3715 27.6907 26.3777C27.9037 27.2295 28.436 27.7264 29.3707 27.7264C30.3526 27.7264 31.0506 27.0047 31.0506 25.9282V12.0863ZM27.6907 21.5272C27.6907 23.1006 26.8981 24.8989 25.0525 24.8989C23.3015 24.8989 22.4379 23.148 22.4379 21.6336C22.4379 20.1075 23.3015 18.3329 25.0525 18.3329C26.8507 18.3329 27.6907 19.9537 27.6907 21.5272Z" fill="#FF6C00"/>
</mask>
<g mask="url(#mask1_1410_1623)">
<rect x="19.0898" y="10.2881" width="11.8623" height="17.7934" fill="#FF6C00"/>
</g>
</svg>
