<svg width="46" height="39" viewBox="0 0 46 39" fill="none" xmlns="http://www.w3.org/2000/svg">
<path opacity="0.5" d="M3.95592 10.3236C1.68346 14.5348 1.40101 19.7473 3.05721 24.2409C4.71341 28.7344 8.25691 32.4705 12.5836 34.5119C17.3596 36.7715 22.8032 36.9898 28.08 37.0925C31.0971 37.1567 34.1784 37.1824 37.0543 36.2451C39.9173 35.3079 42.5878 33.2023 43.3966 30.3008C43.9487 28.3364 43.6149 26.2437 43.127 24.2666C41.5864 18.0012 38.4152 12.044 33.6007 7.75589C29.993 4.5462 25.4352 2.32509 20.6206 1.69599C16.4994 1.15676 12.468 2.40212 9.02724 4.73877C6.93452 6.15104 5.16277 8.07686 3.95592 10.3236Z" fill="url(#paint0_linear_1410_1585)"/>
<path opacity="0.5" d="M43.6435 8.12841C41.1528 4.03284 36.8133 1.15695 32.1014 0.32243C27.3896 -0.51209 22.3825 0.643407 18.4153 3.33955C14.0501 6.31815 11.11 10.9016 8.34969 15.3952C6.77052 17.9629 5.19136 20.6077 4.54942 23.5606C3.90748 26.5135 4.36967 29.8645 6.46239 32.0471C7.87466 33.5107 9.85183 34.2938 11.8033 34.8716C17.9916 36.7075 24.732 36.99 30.8689 35.0128C35.4652 33.5235 39.6891 30.7118 42.6549 26.8859C45.2098 23.5991 46.1727 19.4907 45.9031 15.3438C45.7234 12.8017 44.953 10.311 43.6435 8.12841Z" fill="url(#paint1_linear_1410_1585)"/>
<path d="M11.4563 7.70548C7.81006 12.3916 7.10392 18.8624 3.45771 23.5614C2.7259 24.5114 1.87854 25.3716 1.2366 26.3731C0.594666 27.3745 0.145308 28.5813 0.32505 29.7625C0.568987 31.316 1.81435 32.4972 3.05971 33.4472C5.57611 35.3602 8.42632 36.8367 11.4434 37.7867C22.0996 41.1762 34.4377 37.209 39.8171 27.1306C40.1766 26.4629 40.4847 25.7825 40.7672 25.0892C42.4876 20.7625 42.6673 15.7811 40.9084 11.4672C37.0311 1.96656 24.8086 -0.832292 16.1681 3.78967C14.3963 4.73974 12.8043 6.01076 11.5461 7.58993C11.5205 7.62845 11.4819 7.66696 11.4563 7.70548Z" fill="url(#paint2_linear_1410_1585)"/>
<path opacity="0.7" d="M21.8399 36.5529C31.0153 36.5529 38.4533 29.1149 38.4533 19.9395C38.4533 10.7642 31.0153 3.32617 21.8399 3.32617C12.6646 3.32617 5.22656 10.7642 5.22656 19.9395C5.22656 29.1149 12.6646 36.5529 21.8399 36.5529Z" fill="url(#paint3_linear_1410_1585)"/>
<path d="M15.2211 16.4486H18.8544V28.1319H15.2211V16.4486ZM17.0313 10.6455C18.1997 10.6455 19.1369 11.5827 19.1369 12.7511C19.1369 13.9066 18.1997 14.8566 17.0313 14.8566C15.863 14.8566 14.9258 13.9066 14.9258 12.7511C14.9258 11.5827 15.8758 10.6455 17.0313 10.6455Z" fill="white"/>
<path d="M21.125 16.4486H24.6043V18.0406H24.6557C25.1435 17.1162 26.3247 16.1533 28.0965 16.1533C31.7683 16.1533 32.4488 18.567 32.4488 21.7125V28.1191H28.8154V22.4443C28.8154 21.0834 28.7897 19.3502 26.9281 19.3502C25.0408 19.3502 24.7455 20.8266 24.7455 22.3545V28.1319H21.125V16.4486Z" fill="white"/>
<defs>
<linearGradient id="paint0_linear_1410_1585" x1="7.28848" y1="6.06336" x2="38.1211" y2="36.8958" gradientUnits="userSpaceOnUse">
<stop stop-color="#007AB5"/>
<stop offset="1" stop-color="#0046E5"/>
</linearGradient>
<linearGradient id="paint1_linear_1410_1585" x1="45.6214" y1="13.1614" x2="3.42608" y2="24.1534" gradientUnits="userSpaceOnUse">
<stop stop-color="#007AB5"/>
<stop offset="1" stop-color="#0046E5"/>
</linearGradient>
<linearGradient id="paint2_linear_1410_1585" x1="9.63496" y1="9.37582" x2="34.2618" y2="34.0026" gradientUnits="userSpaceOnUse">
<stop stop-color="#007AB5"/>
<stop offset="1" stop-color="#0046E5"/>
</linearGradient>
<linearGradient id="paint3_linear_1410_1585" x1="10.0919" y1="8.19848" x2="33.582" y2="31.6884" gradientUnits="userSpaceOnUse">
<stop stop-color="#007AB5"/>
<stop offset="1" stop-color="#0046E5"/>
</linearGradient>
</defs>
</svg>
