<svg width="34" height="34" viewBox="0 0 34 34" fill="none" xmlns="http://www.w3.org/2000/svg">
<path d="M0 17C0 7.61116 7.61116 0 17 0H34V17C34 26.3888 26.3888 34 17 34H0V17Z" fill="#FF0A62"/>
<path d="M17 6C14.879 6.0027 12.8457 6.91416 11.3459 8.53442C9.84617 10.1547 9.00251 12.3515 9.00001 14.6429C8.99747 16.5154 9.56363 18.3371 10.6116 19.8286C10.6116 19.8286 10.8298 20.1389 10.8655 20.1837L17 28L23.1374 20.1798C23.1694 20.1381 23.3884 19.8286 23.3884 19.8286L23.3891 19.8262C24.4366 18.3354 25.0025 16.5145 25 14.6429C24.9975 12.3515 24.1538 10.1547 22.6541 8.53442C21.1543 6.91416 19.121 6.0027 17 6ZM17 17.7857C16.4246 17.7857 15.8622 17.6014 15.3838 17.256C14.9054 16.9107 14.5325 16.4199 14.3124 15.8456C14.0922 15.2713 14.0346 14.6394 14.1468 14.0297C14.2591 13.4201 14.5361 12.8601 14.943 12.4205C15.3498 11.981 15.8682 11.6817 16.4325 11.5604C16.9968 11.4391 17.5817 11.5014 18.1133 11.7392C18.6448 11.9771 19.0992 12.3799 19.4188 12.8968C19.7385 13.4136 19.9091 14.0213 19.9091 14.6429C19.9081 15.4761 19.6013 16.2749 19.056 16.864C18.5106 17.4532 17.7712 17.7847 17 17.7857Z" fill="white"/>
</svg>
