<svg width="14" height="11" viewBox="0 0 14 11" fill="none" xmlns="http://www.w3.org/2000/svg">
<path d="M0 4.184V8.125C0 8.82119 0.276562 9.48887 0.768845 9.98116C1.26113 10.4734 1.92881 10.75 2.625 10.75H11.375C12.0712 10.75 12.7389 10.4734 13.2312 9.98116C13.7234 9.48887 14 8.82119 14 8.125V4.184L7.35875 7.173C7.24595 7.22371 7.12368 7.24992 7 7.24992C6.87632 7.24992 6.75405 7.22371 6.64125 7.173L0 4.184ZM0.0647499 2.294L7 5.416L13.9353 2.294C13.8035 1.71348 13.4783 1.19498 13.0131 0.823579C12.5479 0.452174 11.9703 0.24992 11.375 0.25H2.625C2.02972 0.24992 1.45208 0.452174 0.986874 0.823579C0.521664 1.19498 0.196506 1.71348 0.0647499 2.294Z" fill="#FF77A8"/>
</svg>
