<svg width="23" height="23" viewBox="0 0 23 23" fill="none" xmlns="http://www.w3.org/2000/svg">
<path d="M11.0953 22.4054C4.92681 22.4054 -0.022258 17.3894 7.52892e-05 11.1137C0.0224086 4.99439 4.97594 -0.0663424 11.2293 0.000657717C17.3531 0.0721245 22.2664 5.11946 22.1949 11.337C22.1279 17.4206 17.2459 22.392 11.0953 22.4054ZM11.0953 0.876122C5.54321 0.862722 0.929141 5.38746 0.871074 11.0869C0.808541 16.8936 5.44941 21.4808 10.997 21.53C16.6116 21.5836 21.2837 17.032 21.3194 11.3058C21.3507 5.50359 16.7858 0.876122 11.0953 0.876122Z" fill="#083171"/>
<path d="M15.3557 9.47878C15.6729 9.17058 15.9766 9.04998 16.3429 9.13485C16.5394 9.17951 16.7181 9.24651 16.8297 9.41625C16.9012 9.51898 16.9414 9.49218 17.0129 9.42071C17.3211 9.09911 17.6873 9.02318 18.0893 9.20185C18.4958 9.38051 18.6566 9.71105 18.6521 10.1532C18.6432 11.0108 18.6477 11.864 18.6477 12.7216C18.6477 13.1012 18.4735 13.2754 18.0893 13.2844C17.6114 13.2978 17.6114 13.2978 17.6114 12.8332C17.6114 12.065 17.6114 11.3012 17.6114 10.5329C17.6114 10.189 17.5444 10.0907 17.3211 10.0862C17.0977 10.0818 17.0129 10.2024 17.0129 10.5508C17.0129 11.252 17.0129 11.9488 17.0129 12.6501C17.0129 13.1146 16.8431 13.2844 16.3875 13.2888C15.9632 13.2888 15.9632 13.2888 15.9632 12.869C15.9632 12.0739 15.9632 11.2788 15.9632 10.4793C15.9632 10.2068 15.8739 10.0862 15.6773 10.0862C15.4719 10.0862 15.3647 10.2158 15.3647 10.4838C15.3647 11.2208 15.3647 11.9578 15.3647 12.6948C15.3647 13.1012 15.186 13.2799 14.7795 13.2844C14.315 13.2933 14.315 13.2933 14.315 12.8198C14.315 11.6898 14.3195 10.5597 14.3105 9.42965C14.3105 9.22418 14.3686 9.17505 14.5607 9.18845C14.7527 9.20631 14.9493 9.20185 15.1413 9.18845C15.3066 9.17505 15.4093 9.20631 15.3557 9.47878Z" fill="#04B9EF"/>
<path d="M8.73708 11.1582C8.73708 11.5959 8.74155 12.0337 8.73708 12.4759C8.72815 12.994 8.45568 13.2665 7.93309 13.2799C7.67849 13.2843 7.42835 13.2888 7.17375 13.2799C6.62435 13.2575 6.28042 12.9047 6.26702 12.3553C6.26256 12.0515 6.26256 11.7433 6.26702 11.4396C6.27596 10.9393 6.62435 10.5731 7.12462 10.5284C7.26309 10.515 7.40602 10.5195 7.54895 10.5195C7.67849 10.5195 7.78569 10.4971 7.78569 10.3274C7.78569 10.1621 7.69635 10.1264 7.55342 10.1353C7.42835 10.1398 7.29882 10.1353 7.17375 10.1353C6.84322 10.1309 6.66009 9.96114 6.63775 9.63954C6.60649 9.19287 6.60649 9.19287 7.04869 9.19287C7.40602 9.19287 7.76335 9.19287 8.12068 9.19287C8.50035 9.19287 8.72815 9.4162 8.73262 9.80034C8.74155 10.247 8.73708 10.7026 8.73708 11.1582ZM7.79015 11.8684C7.79015 11.7478 7.79015 11.6317 7.79015 11.5111C7.79015 11.453 7.79462 11.4039 7.70529 11.386C7.36582 11.3235 7.21395 11.4441 7.21395 11.788C7.21395 11.8684 7.20949 11.9533 7.21395 12.0337C7.22735 12.2615 7.33455 12.324 7.64275 12.3285C7.89735 12.3329 7.76335 12.1498 7.79015 12.0471C7.80355 11.989 7.79015 11.9265 7.79015 11.8684Z" fill="#062F6F"/>
<path d="M11.532 10.9351C11.5097 11.3817 11.5811 11.9356 11.5007 12.4805C11.4337 12.9451 11.1747 13.1952 10.7101 13.2533C10.326 13.3024 9.93741 13.2667 9.54881 13.2756C9.50861 13.2756 9.44161 13.2845 9.44161 13.2265C9.45054 12.9808 9.35674 12.7173 9.53988 12.4939C9.63814 12.3689 9.77214 12.3153 9.93294 12.3197C10.0803 12.3197 10.2322 12.3197 10.3796 12.3197C10.5091 12.3197 10.5672 12.2572 10.5672 12.1232C10.5672 11.9892 10.5002 11.9401 10.3707 11.9401C10.2456 11.9445 10.1161 11.9445 9.99101 11.9401C9.44161 11.9133 9.06641 11.5515 9.05301 11.0065C9.03961 10.4482 9.05301 9.88986 9.04855 9.33153C9.04855 9.21093 9.08875 9.1752 9.20488 9.18413C9.46841 9.202 9.80341 9.07693 9.97761 9.23773C10.1205 9.36726 10.0089 9.70226 10.0133 9.94793C10.0178 10.2025 10.0133 10.4527 10.0133 10.7073C10.0133 10.8993 10.1116 10.9931 10.3037 10.9887C10.4913 10.9842 10.5672 10.877 10.5672 10.7028C10.5672 10.2561 10.5717 9.80946 10.5627 9.3628C10.5583 9.2288 10.594 9.1752 10.7369 9.18413C10.9469 9.19753 11.1523 9.19753 11.3623 9.18413C11.5007 9.1752 11.5365 9.2288 11.5365 9.3628C11.5275 9.84966 11.532 10.341 11.532 10.9351Z" fill="#093271"/>
<path d="M3.55915 11.5068C3.55915 11.0065 3.55915 10.5107 3.55915 10.0104C3.56362 9.46998 3.84502 9.18858 4.38549 9.18411C4.6535 9.18411 4.9215 9.17965 5.1895 9.18411C5.66743 9.19305 6.02923 9.53251 6.03816 10.0104C6.05156 10.5018 6.05156 10.9931 6.03816 11.4844C6.02923 11.94 5.69423 12.2706 5.23416 12.3152C5.19843 12.3197 5.15823 12.3197 5.1225 12.3197C4.9349 12.3197 4.71157 12.2572 4.5731 12.342C4.41229 12.4358 4.53737 12.6815 4.5061 12.8557C4.4659 13.0969 4.29169 13.2532 4.02815 13.2756C3.55469 13.3113 3.55469 13.3113 3.55469 12.8468C3.55915 12.4001 3.55915 11.9534 3.55915 11.5068ZM4.5061 10.7296C4.5061 10.8948 4.5061 11.0556 4.5061 11.2209C4.5061 11.27 4.48823 11.346 4.5463 11.3594C4.68477 11.3862 4.8277 11.3951 4.9617 11.337C5.07783 11.2879 5.0957 11.1896 5.0957 11.078C5.09123 10.877 5.0957 10.676 5.0957 10.475C5.0957 10.1802 5.03763 10.1444 4.7205 10.1221C4.42569 10.0998 4.52397 10.2963 4.51057 10.4392C4.50163 10.5375 4.5061 10.6358 4.5061 10.7296Z" fill="#093271"/>
<path d="M12.4216 11.538C12.4216 11.136 12.4171 10.734 12.426 10.332C12.4305 10.1802 12.3948 10.1266 12.234 10.1266C11.8543 10.1355 11.8498 10.1266 11.8543 9.74244C11.8543 9.57271 11.8007 9.37171 11.8766 9.23771C11.9481 9.10817 12.1714 9.17071 12.3233 9.12157C12.5556 9.05011 12.7253 8.90271 12.8727 8.72404C12.9844 8.59004 13.105 8.46944 13.2792 8.43371C13.3953 8.40691 13.4891 8.41138 13.4668 8.57664C13.4623 8.61238 13.4668 8.65258 13.4668 8.68831C13.4712 8.84464 13.4221 9.03224 13.4936 9.14391C13.5695 9.25557 13.7705 9.17517 13.9134 9.18411C14.0117 9.18857 14.043 9.22431 14.0385 9.31811C14.034 9.54144 14.0296 9.76477 14.0385 9.98811C14.043 10.1087 13.9938 10.1355 13.8822 10.1355C13.4623 10.1489 13.4623 10.1534 13.4623 10.5688C13.4623 11.3996 13.4578 12.2348 13.4668 13.0656C13.4668 13.2309 13.4266 13.2979 13.2568 13.2756C13.1452 13.2622 13.0335 13.28 12.9218 13.2666C12.5958 13.2264 12.4216 13.0254 12.4171 12.6994C12.4216 12.3108 12.4216 11.9266 12.4216 11.538Z" fill="#04B9EF"/>
</svg>
