<svg width="14" height="14" viewBox="0 0 14 14" fill="none" xmlns="http://www.w3.org/2000/svg">
<path d="M7 0C3.13401 0 0 3.13401 0 7C0 10.866 3.13401 14 7 14C10.866 14 14 10.866 14 7C14 3.13401 10.866 0 7 0ZM4.48438 2.78052C4.6286 2.77201 4.75896 2.85822 4.85779 3.01123L5.81482 4.82616C5.91558 5.04122 5.85832 5.2715 5.70801 5.42516L5.26966 5.86351C5.2426 5.90059 5.2248 5.94235 5.22437 5.98827C5.39247 6.63898 5.9024 7.2392 6.35231 7.65197C6.8022 8.06474 7.28575 8.62358 7.91345 8.75597C7.99104 8.77762 8.08609 8.78537 8.14161 8.73377L8.65088 8.2151C8.82667 8.08185 9.08098 8.01727 9.26868 8.12623H9.27722L11.0041 9.14564C11.2576 9.30453 11.2839 9.61165 11.1024 9.79847L9.91297 10.9785C9.73732 11.1587 9.50396 11.2192 9.27724 11.2195C8.27451 11.1894 7.32706 10.6973 6.54885 10.1915C5.27147 9.26225 4.09975 8.10966 3.36414 6.71717C3.08202 6.13325 2.7506 5.38822 2.78223 4.73647C2.78506 4.49128 2.85139 4.25108 3.02406 4.09304L4.21351 2.90359C4.30617 2.82474 4.39783 2.78563 4.48438 2.78052Z" fill="#FF77A8"/>
</svg>
