<svg width="46" height="40" viewBox="0 0 46 40" fill="none" xmlns="http://www.w3.org/2000/svg">
<path opacity="0.4" d="M3.95592 11.0014C1.68346 15.2125 1.40101 20.425 3.05721 24.9186C4.71341 29.4122 8.25691 33.1483 12.5836 35.1896C17.3596 37.4493 22.8032 37.6675 28.08 37.7702C31.0971 37.8344 34.1784 37.8601 37.0543 36.9229C39.9173 35.9856 42.5878 33.8801 43.3966 30.9785C43.9487 29.0142 43.6149 26.9215 43.127 24.9443C41.5864 18.679 38.4152 12.7218 33.6006 8.43363C29.993 5.22394 25.4352 3.00283 20.6207 2.37373C16.4994 1.8345 12.468 3.07985 9.02724 5.41651C6.93452 6.84161 5.16276 8.76744 3.95592 11.0014Z" fill="url(#paint0_linear_1410_1558)"/>
<path opacity="0.4" d="M43.6435 8.81785C41.1656 4.72228 36.8133 1.8464 32.1014 1.01188C27.3896 0.177364 22.3825 1.33285 18.4153 4.02899C14.0501 7.00759 11.11 11.591 8.34969 16.0846C6.77052 18.6524 5.19135 21.2971 4.54942 24.2501C3.90748 27.203 4.36968 30.5539 6.4624 32.7365C7.87467 34.2001 9.85183 34.9833 11.8033 35.561C17.9916 37.397 24.732 37.6794 30.8689 35.7023C35.4652 34.213 39.6891 31.4013 42.6549 27.5753C45.2098 24.2886 46.1727 20.1802 45.9031 16.0332C45.7234 13.4912 44.953 10.9876 43.6435 8.81785Z" fill="url(#paint1_linear_1410_1558)"/>
<path d="M11.4563 8.39495C7.81006 13.0811 7.10393 19.5518 3.45771 24.2508C2.7259 25.2009 1.87855 26.0611 1.23661 27.0625C0.594673 28.0639 0.145307 29.2708 0.32505 30.452C0.568987 32.0054 1.81435 33.1866 3.05972 34.1367C5.57611 36.0497 8.42632 37.5261 11.4434 38.4762C22.0996 41.8656 34.4377 37.8985 39.8171 27.82C40.1766 27.1524 40.4847 26.4719 40.7672 25.7786C42.4876 21.452 42.6673 16.4705 40.9084 12.1567C37.0311 2.65601 24.8086 -0.142838 16.1681 4.47912C14.3964 5.42919 12.8043 6.70023 11.5461 8.2794C11.5205 8.31791 11.482 8.35643 11.4563 8.39495Z" fill="url(#paint2_linear_1410_1558)"/>
<path opacity="0.6" d="M21.9571 37.2678C31.1324 37.2678 38.5705 29.8297 38.5705 20.6544C38.5705 11.4791 31.1324 4.04102 21.9571 4.04102C12.7818 4.04102 5.34375 11.4791 5.34375 20.6544C5.34375 29.8297 12.7818 37.2678 21.9571 37.2678Z" fill="url(#paint3_linear_1410_1558)"/>
<path fill-rule="evenodd" clip-rule="evenodd" d="M27.8241 21.7207C27.3747 21.451 26.797 21.1557 26.2834 21.374C25.8854 21.5409 25.6287 22.17 25.3719 22.491C25.2435 22.6579 25.0766 22.6836 24.8712 22.5937C23.369 21.9903 22.2135 20.9888 21.379 19.6023C21.2378 19.384 21.2635 19.2171 21.4304 19.0117C21.6872 18.7164 21.9953 18.3826 22.0595 17.9846C22.1237 17.5866 21.9439 17.1244 21.777 16.7649C21.5716 16.3155 21.3277 15.6608 20.8783 15.404C20.4546 15.1729 19.9154 15.3013 19.5431 15.5966C18.9011 16.1229 18.593 16.9318 18.6059 17.7535C18.6059 17.9846 18.6315 18.2157 18.6957 18.4339C18.8241 18.9732 19.068 19.4739 19.3505 19.9489C19.5559 20.3084 19.787 20.655 20.031 20.9888C20.8398 22.0801 21.8412 23.0302 22.9967 23.7492C23.5745 24.1087 24.2036 24.4168 24.8455 24.6351C25.5645 24.879 26.2192 25.1229 27.0024 24.9689C27.8241 24.8148 28.6329 24.3013 28.9539 23.5181C29.0438 23.287 29.0951 23.0174 29.0438 22.7734C28.9282 22.2727 28.2349 21.9774 27.8241 21.7207Z" fill="white"/>
<path d="M12.8164 31.2724L14.3827 25.4307C13.4969 23.8259 13.0347 22.0413 13.0347 20.2182C13.0347 14.2738 17.8749 9.43359 23.8192 9.43359C29.7636 9.43359 34.6038 14.2738 34.6038 20.2182C34.6038 26.1625 29.7636 31.0027 23.8192 31.0027C22.0346 31.0027 20.2757 30.5534 18.6966 29.6932L12.8164 31.2724ZM18.979 27.5106L19.3513 27.7288C20.7122 28.5377 22.2529 28.9614 23.8192 28.9614C28.6466 28.9614 32.5624 25.0327 32.5624 20.2182C32.5624 15.3908 28.6338 11.475 23.8192 11.475C18.9919 11.475 15.076 15.4036 15.076 20.2182C15.076 21.8102 15.5126 23.3765 16.3599 24.7503L16.591 25.1226L15.718 28.3836L18.979 27.5106Z" fill="white"/>
<defs>
<linearGradient id="paint0_linear_1410_1558" x1="7.2881" y1="6.74918" x2="38.1205" y2="37.5816" gradientUnits="userSpaceOnUse">
<stop stop-color="#60FC7C"/>
<stop offset="1" stop-color="#4AB161"/>
</linearGradient>
<linearGradient id="paint1_linear_1410_1558" x1="45.6209" y1="13.8459" x2="3.42542" y2="24.8381" gradientUnits="userSpaceOnUse">
<stop stop-color="#60FC7C"/>
<stop offset="1" stop-color="#4AB161"/>
</linearGradient>
<linearGradient id="paint2_linear_1410_1558" x1="9.63457" y1="10.0604" x2="34.2614" y2="34.6872" gradientUnits="userSpaceOnUse">
<stop stop-color="#60FC7C"/>
<stop offset="1" stop-color="#4AB161"/>
</linearGradient>
<linearGradient id="paint3_linear_1410_1558" x1="10.2082" y1="8.90717" x2="33.6982" y2="32.3971" gradientUnits="userSpaceOnUse">
<stop stop-color="#60FC7C"/>
<stop offset="1" stop-color="#4AB161"/>
</linearGradient>
</defs>
</svg>
