<svg width="37" height="35" viewBox="0 0 37 35" fill="none" xmlns="http://www.w3.org/2000/svg">
<path d="M0.375 17.12C0.375 7.66489 8.03989 0 17.495 0H36.1244V17.12C36.1244 26.5751 28.4595 34.24 19.0044 34.24H0.375V17.12Z" fill="white"/>
<path d="M18.2507 7.60938C15.6169 7.60938 13.0912 8.61144 11.2288 10.3951C9.36655 12.1788 8.32031 14.598 8.32031 17.1205C8.32031 19.643 9.36655 22.0622 11.2288 23.8459C13.0912 25.6295 15.617 26.6316 18.2507 26.6316C20.8844 26.6316 23.4103 25.6295 25.2726 23.8459C27.1349 22.0621 28.1811 19.643 28.1811 17.1205C28.1785 14.5987 27.1315 12.1809 25.2697 10.3979C23.4079 8.61471 20.8834 7.61194 18.2508 7.60945L18.2507 7.60938ZM17.4107 11.6041C17.4601 11.1691 17.6879 10.7707 18.0442 10.4966C18.4003 10.2224 18.8557 10.095 19.3099 10.1427C19.7641 10.1901 20.1801 10.4086 20.4662 10.7498C20.7521 11.0911 20.8849 11.5273 20.8351 11.9623C20.7852 12.3974 20.557 12.7955 20.2006 13.0693C19.844 13.3432 19.3887 13.4701 18.9344 13.4223C18.4808 13.3744 18.0655 13.1561 17.7798 12.8151C17.4942 12.4742 17.3613 12.0387 17.4107 11.6041L17.4107 11.6041ZM21.015 22.9427C20.6506 23.477 20.0986 23.8686 19.4586 24.0465C18.7775 24.2037 18.0589 24.0488 17.5135 23.6272C16.9683 23.2058 16.6584 22.5657 16.6748 21.8948V21.7638C16.6748 21.7638 17.4497 16.1507 17.4594 16.0758C17.5668 15.1217 16.2548 14.9251 15.5613 14.8878L15.5614 14.8879C15.5135 14.8858 15.4732 14.8526 15.4639 14.8075C15.4546 14.7624 15.4787 14.717 15.5223 14.6976C16.072 14.4326 16.6494 14.2236 17.2446 14.0739C17.9173 13.9251 18.6241 14.083 19.1586 14.5015C19.693 14.9201 19.9951 15.5521 19.9764 16.2132V16.3442L19.1884 22.0258C19.0712 23.0674 20.3508 22.9052 20.9075 22.7868C20.9499 22.7776 20.9937 22.7944 21.0176 22.8291C21.0415 22.8637 21.0405 22.909 21.015 22.9427L21.015 22.9427Z" fill="#FF0A62"/>
</svg>
