<svg width="37" height="35" viewBox="0 0 37 35" fill="none" xmlns="http://www.w3.org/2000/svg">
<path d="M0.601562 17.12C0.601562 7.66489 8.26645 0 17.7216 0H36.351V17.12C36.351 26.5751 28.6861 34.24 19.231 34.24H0.601562V17.12Z" fill="white"/>
<path d="M28.4084 17.5499C28.4084 15.1162 27.4223 12.8457 25.6398 11.1205C23.8572 9.39518 21.4679 8.46875 18.9268 8.46875C16.3857 8.46875 14.0153 9.4132 12.2139 11.1205C10.4126 12.8277 9.44531 15.1343 9.44531 17.5499C9.44531 19.9656 10.4314 22.2542 12.2139 23.9794C13.9964 25.7047 16.3857 26.6311 18.9268 26.6311C21.1266 26.6311 23.2883 25.8866 24.976 24.5424L28.2755 24.724L27.2895 21.8362C28.029 20.4923 28.4084 19.0574 28.4084 17.5502V17.5499ZM19.9697 23.0893C19.5904 23.4527 19.1164 23.6523 18.5665 23.6523C18.0166 23.6523 17.5615 23.4707 17.1633 23.0893C16.7839 22.726 16.5755 22.272 16.5755 21.7453C16.5755 21.2187 16.765 20.7828 17.1633 20.4014C17.5426 20.038 18.0166 19.8384 18.5665 19.8384C19.1164 19.8384 19.5715 20.02 19.9697 20.4014C20.3491 20.7647 20.5575 21.2187 20.5575 21.7453C20.5575 22.272 20.349 22.726 19.9697 23.0893ZM21.2023 17.7858C21.1454 17.8221 21.0127 17.9129 20.842 18.0218C20.6524 18.1489 20.5386 18.2217 20.4627 18.2762C20.3869 18.3307 20.292 18.4033 20.1971 18.5122C20.1023 18.6212 20.0075 18.7302 19.9696 18.8211C19.9316 18.93 19.9127 19.039 19.9127 19.1661V19.2025H17.2202V18.7302C17.2202 18.2762 17.334 17.8584 17.5426 17.477C17.7513 17.0955 17.9788 16.805 18.1873 16.6234C18.396 16.4418 18.6994 16.2238 19.0596 15.9514C19.3252 15.7698 19.5148 15.5881 19.6285 15.461C19.7423 15.3156 19.8181 15.1522 19.8181 14.9525C19.8181 14.7709 19.7423 14.6074 19.6095 14.4621C19.4768 14.3167 19.2681 14.2441 19.0216 14.2441C18.7372 14.2441 18.4718 14.335 18.2821 14.5347C18.0734 14.7345 17.9787 15.0251 17.9787 15.4246V15.5517H14.9256V15.0613C14.9256 14.4802 15.0583 13.9353 15.305 13.463C15.5514 12.9907 15.8928 12.6094 16.3099 12.3187C16.7271 12.0282 17.1822 11.8102 17.6563 11.6649C18.1494 11.5014 18.6424 11.4288 19.1544 11.4288C20.2163 11.4288 21.1076 11.7376 21.8661 12.3732C22.6246 13.0088 22.9849 13.8444 22.9849 14.8796C22.9659 16.0604 22.3781 17.0231 21.2023 17.7858L21.2023 17.7858Z" fill="#FF0A62"/>
</svg>
