<svg width="46" height="40" viewBox="0 0 46 40" fill="none" xmlns="http://www.w3.org/2000/svg">
<path opacity="0.5" d="M3.95983 10.7602C1.68736 14.9713 1.40491 20.1838 3.06111 24.6774C4.71732 29.171 8.26082 32.9071 12.5875 34.9484C17.3635 37.208 22.8071 37.4263 28.0839 37.529C31.101 37.5932 34.1823 37.6189 37.0582 36.6817C39.9212 35.7444 42.5917 33.6389 43.4005 30.7373C43.9526 28.773 43.6188 26.6803 43.1309 24.7031C41.5903 18.4378 38.4191 12.4806 33.6046 8.19242C29.9969 4.98272 25.4391 2.76161 20.6246 2.13251C16.5033 1.59329 12.4719 2.83864 9.03114 5.1753C6.93842 6.58756 5.16667 8.51339 3.95983 10.7602Z" fill="url(#paint0_linear_1410_1592)"/>
<path opacity="0.5" d="M43.6474 8.56493C41.1567 4.46936 36.8172 1.59347 32.1053 0.758953C27.3935 -0.0755668 22.3864 1.07993 18.4192 3.77607C14.054 6.75467 11.1139 11.3381 8.3536 15.8317C6.77443 18.3994 5.19526 21.0442 4.55332 23.9971C3.91139 26.9501 4.37358 30.301 6.4663 32.4836C7.87857 33.9472 9.85574 34.7304 11.8072 35.3081C17.9955 37.144 24.7359 37.4265 30.8728 35.4493C35.4691 33.96 39.6931 31.1483 42.6588 27.3224C45.2137 24.0357 46.1766 19.9273 45.907 15.7803C45.7273 13.2383 44.9569 10.7475 43.6474 8.56493Z" fill="url(#paint1_linear_1410_1592)"/>
<path d="M11.4602 8.142C7.81396 12.8282 7.10783 19.2989 3.46162 23.9979C2.72981 24.948 1.88245 25.8082 1.24051 26.8096C0.598572 27.811 0.149214 29.0179 0.328957 30.199C0.572893 31.7525 1.81826 32.9337 3.06362 33.8837C5.58002 35.7967 8.43022 37.2732 11.4473 38.2233C22.1035 41.6127 34.4416 37.6455 39.821 27.5671C40.1805 26.8995 40.4886 26.219 40.7711 25.5257C42.4915 21.199 42.6712 16.2176 40.9123 11.9038C37.035 2.40308 24.8125 -0.395768 16.172 4.22619C14.4003 5.17626 12.8082 6.44729 11.55 8.02646C11.5244 8.06497 11.4859 8.10349 11.4602 8.142Z" fill="url(#paint2_linear_1410_1592)"/>
<path opacity="0.7" d="M21.8438 36.9894C31.0192 36.9894 38.4572 29.5514 38.4572 20.3761C38.4572 11.2008 31.0192 3.7627 21.8438 3.7627C12.6685 3.7627 5.23047 11.2008 5.23047 20.3761C5.23047 29.5514 12.6685 36.9894 21.8438 36.9894Z" fill="url(#paint3_linear_1410_1592)"/>
<path d="M32.7771 15.2676H16.1677C15.773 15.2676 15.4531 15.5875 15.4531 15.9821V28.041C15.4531 28.4357 15.773 28.7556 16.1677 28.7556H32.7771C33.1718 28.7556 33.4917 28.4357 33.4917 28.041V15.9821C33.4917 15.5875 33.1718 15.2676 32.7771 15.2676Z" fill="#4989F5"/>
<path d="M32.5703 15.166H16.3579C15.8556 15.166 15.4648 19.0527 15.4648 19.5549L24.3433 28.7554H32.5703C33.074 28.754 33.4821 28.346 33.4834 27.8422V16.079C33.482 15.5753 33.074 15.1674 32.5703 15.166Z" fill="white"/>
<path d="M19.5703 17.5261H24.7242V10.7617H20.342L19.5703 17.5261Z" fill="#709BE0"/>
<path d="M29.8765 17.5261H24.7227V10.7617H29.1048L29.8765 17.5261ZM33.4885 12.044L33.4949 12.067C33.4933 12.0589 33.4902 12.0513 33.4885 12.044Z" fill="white"/>
<path d="M33.4956 12.067L33.4892 12.044C33.3258 11.2958 32.6635 10.7622 31.8977 10.7617H29.1055L29.8766 17.5263H35.0305L33.4956 12.067Z" fill="#709BE0"/>
<path d="M15.9595 12.0439L15.9531 12.067C15.9547 12.0589 15.9578 12.0513 15.9595 12.0439Z" fill="white"/>
<path d="M15.95 12.067L15.9563 12.044C16.1197 11.2958 16.782 10.7622 17.5479 10.7617H20.3402L19.5679 17.5263H14.4141L15.95 12.067Z" fill="white"/>
<path fill-rule="evenodd" clip-rule="evenodd" d="M19.5807 17.5254C19.5807 18.9478 18.4276 20.1009 17.0052 20.1009C15.5828 20.1009 14.4297 18.9478 14.4297 17.5254H19.5807Z" fill="#709BE0"/>
<path fill-rule="evenodd" clip-rule="evenodd" d="M24.7291 17.5254C24.7291 18.9478 23.576 20.1009 22.1536 20.1009C20.7312 20.1009 19.5781 18.9478 19.5781 17.5254H24.7291Z" fill="#709BE0"/>
<path fill-rule="evenodd" clip-rule="evenodd" d="M29.8814 17.5254C29.8814 18.9478 28.7283 20.1009 27.306 20.1009C25.8836 20.1009 24.7305 18.9478 24.7305 17.5254H29.8814Z" fill="#709BE0"/>
<path fill-rule="evenodd" clip-rule="evenodd" d="M35.0299 17.5254C35.0299 18.9478 33.8768 20.1009 32.4544 20.1009C31.032 20.1009 29.8789 18.9478 29.8789 17.5254H35.0299Z" fill="#709BE0"/>
<path d="M32.4561 24.5032C32.447 24.3806 32.4318 24.2686 32.4103 24.1256H29.6009C29.6009 24.5185 29.6009 24.9473 29.5993 25.3404H31.2269C31.1923 25.5236 31.1219 25.6982 31.0196 25.8541C30.9174 26.01 30.7853 26.1442 30.6311 26.2489C30.6311 26.2489 30.6311 26.2422 30.6299 26.242C30.4307 26.3728 30.2063 26.4604 29.9712 26.4991C29.7354 26.5422 29.4937 26.5412 29.2583 26.496C29.0193 26.4465 28.7931 26.3484 28.5936 26.2079C28.2991 25.999 28.072 25.7088 27.94 25.3728C27.93 25.3466 27.9207 25.3203 27.9112 25.2935V25.2906L27.9137 25.2887C27.7856 24.9129 27.7853 24.5053 27.9127 24.1293C28.0025 23.8655 28.1502 23.6252 28.345 23.4259C28.802 22.9532 29.4848 22.7754 30.1143 22.9652C30.3557 23.0392 30.5763 23.1691 30.7582 23.3442L31.3073 22.7951C31.4042 22.6972 31.5047 22.6025 31.5979 22.5013C31.3195 22.2416 30.9927 22.0393 30.6361 21.9057C29.9872 21.6704 29.2773 21.6642 28.6244 21.8881C28.6016 21.8959 28.579 21.9039 28.5566 21.9123C27.8521 22.1771 27.2726 22.6965 26.9325 23.3678C26.8124 23.6054 26.7249 23.8582 26.6725 24.1192C26.3615 25.6648 27.3046 27.1862 28.8272 27.5951C29.325 27.7285 29.8541 27.7252 30.3558 27.6112C30.8115 27.5083 31.233 27.2893 31.5791 26.9755C31.9403 26.6432 32.1991 26.2005 32.3348 25.7303C32.4482 25.3318 32.4892 24.9162 32.4561 24.5032Z" fill="#0051DB"/>
<defs>
<linearGradient id="paint0_linear_1410_1592" x1="7.29239" y1="6.49988" x2="38.125" y2="37.3323" gradientUnits="userSpaceOnUse">
<stop stop-color="#007AB5"/>
<stop offset="1" stop-color="#0046E5"/>
</linearGradient>
<linearGradient id="paint1_linear_1410_1592" x1="45.6254" y1="13.5979" x2="3.42999" y2="24.5899" gradientUnits="userSpaceOnUse">
<stop stop-color="#007AB5"/>
<stop offset="1" stop-color="#0046E5"/>
</linearGradient>
<linearGradient id="paint2_linear_1410_1592" x1="9.63887" y1="9.81234" x2="34.2657" y2="34.4392" gradientUnits="userSpaceOnUse">
<stop stop-color="#007AB5"/>
<stop offset="1" stop-color="#0046E5"/>
</linearGradient>
<linearGradient id="paint3_linear_1410_1592" x1="10.0959" y1="8.63501" x2="33.5859" y2="32.125" gradientUnits="userSpaceOnUse">
<stop stop-color="#007AB5"/>
<stop offset="1" stop-color="#0046E5"/>
</linearGradient>
</defs>
</svg>
