<svg width="22" height="22" viewBox="0 0 22 22" fill="none" xmlns="http://www.w3.org/2000/svg">
<path d="M10.9953 22.0004C17.0678 22.0004 21.9905 17.0754 21.9905 11.0002C21.9905 4.92495 17.0678 0 10.9953 0C4.92275 0 0 4.92495 0 11.0002C0 17.0754 4.92275 22.0004 10.9953 22.0004Z" fill="white"/>
<path d="M10.9951 22.0003C8.95156 22.0036 6.94789 21.4344 5.21094 20.3573L12.5758 0.112793C15.328 0.510255 17.8275 1.93622 19.5709 4.10353C21.3143 6.27086 22.1721 9.01855 21.9716 11.7933C21.7711 14.568 20.5272 17.1637 18.4903 19.0576C16.4535 20.9515 13.775 22.003 10.9943 22.0003H10.9951Z" fill="#6E7BF2"/>
<path d="M7.26475 10.9518C7.26785 10.7668 7.2489 10.582 7.20825 10.4014H4.67773V11.4018H6.1634C6.13547 11.5772 6.07231 11.7452 5.97773 11.8955C5.8832 12.0459 5.75915 12.1755 5.61318 12.2766L5.60789 12.3097L6.40764 12.9299L6.46312 12.9351C6.72776 12.679 6.93591 12.3702 7.07401 12.0287C7.21212 11.6872 7.27717 11.3205 7.26497 10.9523" fill="#4285F4"/>
<path d="M4.67839 13.5884C5.33497 13.6069 5.97362 13.3732 6.46335 12.9353L5.61341 12.2757C5.33776 12.4607 5.01123 12.5549 4.67947 12.5452C4.33859 12.543 4.00708 12.4335 3.73183 12.2324C3.45658 12.0312 3.25154 11.7485 3.14575 11.4243L3.11379 11.4275L2.28206 12.0712L2.27148 12.101C2.49468 12.5484 2.83819 12.9246 3.26339 13.1874C3.68859 13.4502 4.17863 13.589 4.67839 13.5884Z" fill="#34A853"/>
<path d="M3.14532 11.4256C3.08634 11.2538 3.05609 11.0735 3.05579 10.8919C3.05711 10.7105 3.0866 10.5304 3.1432 10.3581L3.14214 10.323L2.29962 9.6687L2.2719 9.68142C2.08285 10.0568 1.98438 10.4714 1.98438 10.8918C1.98438 11.3122 2.08285 11.7267 2.2719 12.1021L3.14532 11.4246" fill="#FBBC05"/>
<path d="M4.67814 9.23873C5.06443 9.23237 5.43801 9.37666 5.7198 9.64105L6.48062 8.89849C5.99257 8.44074 5.34648 8.18954 4.67749 8.19745C4.1778 8.19723 3.68789 8.33615 3.26261 8.59865C2.83733 8.86115 2.49348 9.23688 2.26953 9.6838L3.14062 10.3613C3.24749 10.037 3.45338 9.75436 3.72929 9.55326C4.0052 9.35217 4.33722 9.24277 4.67857 9.24045" fill="#EB4335"/>
<path d="M11.5071 11.1921V13.1515H10.8809V8.3109H12.5412C12.7392 8.3066 12.9361 8.34137 13.1206 8.41321C13.3052 8.4851 13.4739 8.59261 13.6169 8.72968C13.7514 8.85374 13.8601 9.00305 13.937 9.16913C14.0138 9.33525 14.0571 9.51482 14.0645 9.6977C14.0719 9.88058 14.0433 10.0631 13.9802 10.2349C13.917 10.4066 13.8207 10.5643 13.6966 10.6988C13.6711 10.727 13.6445 10.7536 13.6169 10.7786C13.4735 10.9147 13.3046 11.0211 13.12 11.0918C12.9354 11.1626 12.7387 11.1962 12.5412 11.1908L11.5071 11.1919V11.1921ZM11.5071 8.90672V10.5965H12.5562C12.7211 10.6004 12.8836 10.5556 13.0234 10.4678C13.1631 10.3801 13.274 10.2532 13.3424 10.1029C13.4106 9.95264 13.4333 9.78557 13.4075 9.62254C13.3817 9.45948 13.3085 9.30758 13.1972 9.18576L13.1909 9.1794C13.1858 9.17377 13.1804 9.1684 13.1747 9.16333C13.0955 9.07928 12.9995 9.01294 12.8928 8.96868C12.7862 8.92442 12.6714 8.90324 12.5559 8.90646L11.5071 8.90672ZM15.507 9.73242C15.906 9.70994 16.2984 9.84195 16.6028 10.1011C16.7387 10.2305 16.8449 10.3878 16.9143 10.5622C16.9837 10.7365 17.0146 10.9238 17.0049 11.1112V13.1527H16.4064V12.6924H16.3797C16.2709 12.8684 16.1184 13.0132 15.9369 13.1127C15.7556 13.2122 15.5515 13.263 15.3447 13.2603C15.0077 13.2713 14.6789 13.1553 14.4234 12.9353C14.3051 12.8363 14.2104 12.7121 14.1463 12.5718C14.0822 12.4315 14.0502 12.2786 14.0528 12.1244C14.0475 11.9667 14.0803 11.8101 14.1484 11.6679C14.2164 11.5256 14.3177 11.4018 14.4438 11.3071C14.748 11.0913 15.1161 10.9843 15.4886 11.0035C15.8068 10.9914 16.1229 11.0611 16.4066 11.2059V11.0632C16.4074 10.9579 16.3846 10.8537 16.3397 10.7585C16.295 10.6632 16.2294 10.5792 16.1478 10.5127C15.9819 10.3644 15.7664 10.2838 15.544 10.2868C15.3798 10.283 15.2173 10.3213 15.0721 10.3981C14.9269 10.475 14.8037 10.5877 14.7144 10.7257L14.1642 10.3805C14.3141 10.1665 14.5164 9.99449 14.7517 9.88088C14.987 9.76731 15.2475 9.71587 15.5082 9.7316L15.507 9.73242ZM14.6964 12.1383C14.696 12.2176 14.7146 12.2957 14.7505 12.3663C14.7864 12.4369 14.8387 12.4979 14.903 12.5442C15.0418 12.6525 15.2137 12.7098 15.3897 12.7062C15.6536 12.7062 15.9067 12.6016 16.0937 12.4153C16.1912 12.3302 16.2694 12.2253 16.3231 12.1075C16.3767 11.9896 16.4045 11.8617 16.4045 11.7322C16.1664 11.5644 15.8784 11.4823 15.5876 11.4993C15.362 11.491 15.1396 11.5548 14.9527 11.6816C14.8757 11.7306 14.8121 11.7979 14.7675 11.8775C14.7229 11.957 14.6987 12.0465 14.6971 12.1377L14.6964 12.1383ZM20.4413 9.84104L18.3516 14.6113H17.705L18.4804 12.9416L17.1048 9.83894H17.7855L18.7802 12.2181H18.7939L19.7598 9.83894L20.4413 9.84104Z" fill="white"/>
</svg>
