<svg width="46" height="40" viewBox="0 0 46 40" fill="none" xmlns="http://www.w3.org/2000/svg">
<path opacity="0.5" d="M3.66295 10.5766C1.39049 14.7877 1.10804 20.0002 2.76424 24.4938C4.42044 28.9874 7.96394 32.7235 12.2906 34.7648C17.0666 37.0245 22.5103 37.2427 27.787 37.3454C30.8041 37.4096 33.8854 37.4353 36.7613 36.4981C39.6244 35.5608 42.2948 33.4553 43.1037 30.5537C43.6557 28.5894 43.3219 26.4967 42.8341 24.5195C41.2934 18.2542 38.1222 12.297 33.3077 8.00882C29.7 4.79913 25.1422 2.57802 20.3277 1.94892C16.2064 1.40969 12.1751 2.65505 8.73427 4.99171C6.64155 6.40397 4.8698 8.32979 3.66295 10.5766Z" fill="url(#paint0_linear_1410_1571)"/>
<path opacity="0.5" d="M43.3466 8.38134C40.8559 4.28577 36.5164 1.40988 31.8046 0.575361C27.0927 -0.259159 22.0856 0.896329 18.1184 3.59247C13.7532 6.57107 10.8132 11.1545 8.05282 15.6481C6.47365 18.2158 4.89448 20.8606 4.25254 23.8135C3.6106 26.7665 4.0728 30.1174 6.16552 32.3C7.57778 33.7636 9.55496 34.5468 11.5065 35.1245C17.6947 36.9604 24.4351 37.2429 30.572 35.2657C35.1683 33.7764 39.3923 30.9647 42.358 27.1388C44.9129 23.8521 45.8759 19.7437 45.6062 15.5967C45.4393 13.0547 44.669 10.5639 43.3466 8.38134Z" fill="url(#paint1_linear_1410_1571)"/>
<path d="M11.1711 7.95842C7.5249 12.6446 6.81877 19.1153 3.17255 23.8143C2.44074 24.7644 1.59338 25.6246 0.951446 26.626C0.309507 27.6274 -0.139849 28.8343 0.0398943 30.0154C0.283831 31.5689 1.52919 32.7501 2.77455 33.7002C5.29095 35.6131 8.14116 37.0896 11.1583 38.0397C21.8145 41.4291 34.1525 37.4619 39.532 27.3835C39.8914 26.7159 40.1996 26.0354 40.482 25.3421C42.2024 21.0155 42.3822 16.034 40.6233 11.7202C36.7459 2.21949 24.5234 -0.579362 15.8829 4.0426C14.1112 4.99267 12.5192 6.2637 11.261 7.84287C11.2225 7.88139 11.1968 7.91991 11.1711 7.95842Z" fill="url(#paint2_linear_1410_1571)"/>
<path opacity="0.7" d="M21.9298 36.8195C31.1051 36.8195 38.5432 29.3815 38.5432 20.2061C38.5432 11.0308 31.1051 3.59277 21.9298 3.59277C12.7545 3.59277 5.31641 11.0308 5.31641 20.2061C5.31641 29.3815 12.7545 36.8195 21.9298 36.8195Z" fill="url(#paint3_linear_1410_1571)"/>
<path d="M29.0975 13.1309C28.3785 13.1309 27.8008 13.7086 27.8008 14.4276C27.8008 15.1465 28.3785 15.7243 29.0975 15.7243C29.8165 15.7243 30.3942 15.1465 30.3942 14.4276C30.3814 13.7086 29.8036 13.1309 29.0975 13.1309Z" fill="white"/>
<path d="M23.3594 14.7871C20.3679 14.7871 17.9414 17.2136 17.9414 20.2051C17.9414 23.1965 20.3679 25.623 23.3594 25.623C26.3508 25.623 28.7773 23.1965 28.7773 20.2051C28.7773 17.2265 26.3508 14.7871 23.3594 14.7871ZM23.3594 23.6844C21.4464 23.6844 19.8929 22.1309 19.8929 20.2179C19.8929 18.3049 21.4464 16.7514 23.3594 16.7514C25.2723 16.7514 26.8258 18.3049 26.8258 20.2179C26.8258 22.1309 25.2723 23.6844 23.3594 23.6844Z" fill="white"/>
<path d="M27.6554 31.2205H18.8737C15.2275 31.2205 12.2617 28.2547 12.2617 24.6085V15.8268C12.2617 12.1806 15.2275 9.21484 18.8737 9.21484H27.6554C31.3016 9.21484 34.2674 12.1806 34.2674 15.8268V24.6085C34.2674 28.2547 31.3016 31.2205 27.6554 31.2205ZM18.8737 11.269C16.3701 11.269 14.3288 13.3104 14.3288 15.814V24.5957C14.3288 27.0993 16.3701 29.1406 18.8737 29.1406H27.6554C30.159 29.1406 32.2003 27.0993 32.2003 24.5957V15.814C32.2003 13.3104 30.159 11.269 27.6554 11.269H18.8737Z" fill="white"/>
<defs>
<linearGradient id="paint0_linear_1410_1571" x1="3.82806" y1="3.14267" x2="50.9442" y2="50.2588" gradientUnits="userSpaceOnUse">
<stop offset="0.0011048" stop-color="#FBE18A"/>
<stop offset="0.2094" stop-color="#FCBB45"/>
<stop offset="0.3765" stop-color="#F75274"/>
<stop offset="0.5238" stop-color="#D53692"/>
<stop offset="0.7394" stop-color="#8F39CE"/>
<stop offset="1" stop-color="#5B4FE9"/>
</linearGradient>
<linearGradient id="paint1_linear_1410_1571" x1="49.6768" y1="12.2837" x2="-14.8033" y2="29.081" gradientUnits="userSpaceOnUse">
<stop offset="0.0011048" stop-color="#FBE18A"/>
<stop offset="0.2094" stop-color="#FCBB45"/>
<stop offset="0.3765" stop-color="#F75274"/>
<stop offset="0.5238" stop-color="#D53692"/>
<stop offset="0.7394" stop-color="#8F39CE"/>
<stop offset="1" stop-color="#5B4FE9"/>
</linearGradient>
<linearGradient id="paint2_linear_1410_1571" x1="6.8085" y1="7.09424" x2="44.4414" y2="44.7271" gradientUnits="userSpaceOnUse">
<stop offset="0.0011048" stop-color="#FBE18A"/>
<stop offset="0.2094" stop-color="#FCBB45"/>
<stop offset="0.3765" stop-color="#F75274"/>
<stop offset="0.5238" stop-color="#D53692"/>
<stop offset="0.7394" stop-color="#8F39CE"/>
<stop offset="1" stop-color="#5B4FE9"/>
</linearGradient>
<linearGradient id="paint3_linear_1410_1571" x1="7.76348" y1="6.04678" x2="43.6592" y2="41.9425" gradientUnits="userSpaceOnUse">
<stop offset="0.0011048" stop-color="#FBE18A"/>
<stop offset="0.2094" stop-color="#FCBB45"/>
<stop offset="0.3765" stop-color="#F75274"/>
<stop offset="0.5238" stop-color="#D53692"/>
<stop offset="0.7394" stop-color="#8F39CE"/>
<stop offset="1" stop-color="#5B4FE9"/>
</linearGradient>
</defs>
</svg>
