<svg width="34" height="34" viewBox="0 0 34 34" fill="none" xmlns="http://www.w3.org/2000/svg">
<path d="M0 17C0 7.61116 7.61116 0 17 0H34V17C34 26.3888 26.3888 34 17 34H0V17Z" fill="#FF0A62"/>
<path d="M7 15.62V21.25C7 22.2446 7.39509 23.1984 8.09835 23.9017C8.80161 24.6049 9.75544 25 10.75 25H23.25C24.2446 25 25.1984 24.6049 25.9017 23.9017C26.6049 23.1984 27 22.2446 27 21.25V15.62L17.5125 19.89C17.3514 19.9624 17.1767 19.9999 17 19.9999C16.8233 19.9999 16.6486 19.9624 16.4875 19.89L7 15.62ZM7.0925 12.92L17 17.38L26.9075 12.92C26.7193 12.0907 26.2548 11.35 25.5902 10.8194C24.9256 10.2888 24.1004 9.99989 23.25 10H10.75C9.8996 9.99989 9.07441 10.2888 8.40982 10.8194C7.74523 11.35 7.28072 12.0907 7.0925 12.92Z" fill="white"/>
</svg>
