<svg width="14" height="13" viewBox="0 0 14 13" fill="none" xmlns="http://www.w3.org/2000/svg">
<path d="M7.32993 0H3.60274C1.61632 0 0 1.58729 0 3.53937V4.50554C0 6.02726 0.986213 7.37334 2.45159 7.85739L2.59623 7.90466L2.52005 8.03445C2.32409 8.36565 2.05967 8.88606 1.70812 9.62484C1.66613 9.71332 1.68479 9.82021 1.75478 9.88888C1.82476 9.95755 1.93522 9.97735 2.02387 9.93775L6.24411 8.04362H7.32993C9.31636 8.04362 10.9327 6.45632 10.9327 4.50561V3.53944C10.9325 1.58728 9.31627 7.0804e-05 7.32993 7.0804e-05V0ZM2.64997 4.7694C2.27553 4.7694 1.97095 4.47054 1.97095 4.10303C1.97095 3.73563 2.27553 3.43678 2.64997 3.43678C3.02442 3.43678 3.329 3.73563 3.329 4.10303C3.3291 4.47054 3.02442 4.7694 2.64997 4.7694ZM5.46606 4.7694C5.09162 4.7694 4.78704 4.47054 4.78704 4.10303C4.78704 3.73563 5.09162 3.43678 5.46606 3.43678C5.8405 3.43678 6.14508 3.73563 6.14508 4.10303C6.14508 4.47054 5.8405 4.7694 5.46606 4.7694ZM8.28214 4.7694C7.9077 4.7694 7.60312 4.47054 7.60312 4.10303C7.60312 3.73563 7.9077 3.43678 8.28214 3.43678C8.65658 3.43678 8.96117 3.73563 8.96117 4.10303C8.96117 4.47054 8.65658 4.7694 8.28214 4.7694Z" fill="#FF77A8"/>
<path d="M4.84282 9.09255L4.57047 9.21478C4.46826 9.26077 4.45393 9.39779 4.54432 9.46327C5.1409 9.89477 5.8757 10.1515 6.6718 10.1515H7.75665L11.9777 12.046C12.0652 12.0857 12.1764 12.0667 12.2462 11.9981C12.3165 11.9287 12.3352 11.8225 12.2932 11.7338C11.9422 10.9943 11.6765 10.4738 11.4809 10.1424L11.4047 10.0133L11.5489 9.96579C13.0155 9.48233 14.0009 8.13522 14.0009 6.61339V5.64722C14.0009 4.01403 12.867 2.63933 11.3326 2.23459C11.2217 2.20531 11.1209 2.30709 11.1536 2.41505C11.1816 2.50735 11.2064 2.60115 11.2276 2.69602C11.2286 2.69634 11.2294 2.69666 11.2302 2.69677C11.2293 2.69645 11.2284 2.69613 11.2273 2.69581C11.288 2.96751 11.3221 3.24985 11.3221 3.53988V4.50605C11.3221 6.67083 9.53374 8.42563 7.32745 8.42563H6.33038L4.84282 9.09255ZM10.7389 9.89709V9.89698V9.89709Z" fill="#FF77A8"/>
</svg>
