<svg width="41" height="41" viewBox="0 0 41 41" fill="none" xmlns="http://www.w3.org/2000/svg">
<rect width="41" height="40.0465" rx="4" fill="white"/>
<path d="M26.7497 6.6748H10.25V32.8069H31.2081V11.0296L26.7497 6.6748Z" fill="#FF0000"/>
<path d="M27.6477 19.5975C27.3262 19.0379 26.2154 18.862 25.7058 18.7829C25.3041 18.7205 24.894 18.7019 24.4877 18.7022C24.1687 18.7002 23.8544 18.7155 23.5442 18.7327C23.4298 18.7402 23.3166 18.7499 23.2035 18.7595C23.0875 18.6422 22.9754 18.5211 22.867 18.3973C22.1769 17.5994 21.6197 16.6946 21.1657 15.7543C21.2863 15.3 21.3827 14.8259 21.441 14.3335C21.5473 13.4347 21.5838 12.4105 21.2391 11.5537C21.12 11.258 20.8026 10.898 20.4364 11.0772C20.0154 11.2834 19.897 11.8675 19.8626 12.2816C19.835 12.6163 19.8544 12.9518 19.9119 13.2809C19.9705 13.6122 20.0648 13.9268 20.1675 14.241C20.2634 14.529 20.369 14.8148 20.4841 15.098C20.4111 15.3209 20.3335 15.5399 20.2521 15.7533C20.0622 16.2397 19.8568 16.7017 19.6593 17.1462C19.5552 17.3666 19.4533 17.5824 19.3536 17.7933C19.038 18.4703 18.6955 19.1349 18.311 19.7774C17.4142 20.0864 16.6094 20.4446 15.941 20.8655C15.5825 21.0918 15.2658 21.3375 15.002 21.607C14.753 21.8615 14.4999 22.1917 14.4778 22.5572C14.4653 22.7636 14.549 22.9638 14.722 23.0862C14.96 23.2598 15.2754 23.2483 15.5515 23.1918C16.456 23.0064 17.1506 22.247 17.7421 21.607C18.1495 21.1661 18.6132 20.6063 19.0983 19.9293C19.0993 19.9277 19.1004 19.9261 19.1015 19.9246C19.9335 19.6727 20.839 19.4599 21.7999 19.3036C22.239 19.2325 22.6896 19.1743 23.1493 19.1334C23.4725 19.4292 23.8218 19.6984 24.2028 19.9233C24.4996 20.1016 24.8152 20.2522 25.1456 20.3645C25.4797 20.4711 25.8158 20.5582 26.1629 20.6133C26.3381 20.6377 26.5173 20.6489 26.7004 20.6421C27.1091 20.6271 27.6957 20.474 27.7341 19.9897C27.746 19.8414 27.7132 19.7114 27.6477 19.5975ZM17.8642 20.4861C17.6728 20.7757 17.4882 21.0362 17.3143 21.2654C16.8883 21.8315 16.4018 22.5039 15.6975 22.7553C15.5637 22.803 15.3876 22.8523 15.2019 22.8417C15.0365 22.8322 14.8735 22.7609 14.881 22.5775C14.8847 22.4815 14.9328 22.359 15.0065 22.2387C15.0873 22.1067 15.1872 21.9857 15.2955 21.8744C15.5275 21.6364 15.8208 21.4056 16.1583 21.192C16.6758 20.864 17.2937 20.5688 17.9824 20.3054C17.9428 20.3666 17.9033 20.4274 17.8642 20.4861ZM20.2664 13.2237C20.2132 12.9208 20.2052 12.6137 20.2379 12.3184C20.2541 12.1708 20.2849 12.0266 20.3295 11.8916C20.3672 11.7769 20.4488 11.4972 20.5788 11.4612C20.7933 11.4019 20.8592 11.8516 20.8834 11.9788C21.0216 12.7025 20.8999 13.5072 20.734 14.2171C20.7077 14.33 20.6783 14.4411 20.6482 14.5518C20.5968 14.4138 20.5479 14.2754 20.5028 14.1363C20.4057 13.8324 20.3169 13.5251 20.2664 13.2237ZM21.7385 18.9364C20.9329 19.064 20.1665 19.2311 19.4461 19.4284C19.5328 19.4047 19.9292 18.6709 20.0176 18.5186C20.4342 17.802 20.775 17.0498 21.0199 16.2607C21.4523 17.096 21.977 17.8951 22.6218 18.6063C22.6811 18.6709 22.7415 18.7346 22.8029 18.7976C22.4416 18.8357 22.0861 18.8819 21.7385 18.9364ZM27.187 19.9443C27.1575 20.0999 26.8174 20.1889 26.6586 20.2133C26.1895 20.2854 25.6932 20.2277 25.2443 20.0804C24.9362 19.9794 24.6391 19.8419 24.3568 19.6764C24.0762 19.5108 23.8137 19.316 23.5682 19.1012C23.8708 19.0835 24.1771 19.0718 24.4849 19.0775C24.7927 19.0805 25.1029 19.0957 25.4093 19.1347C25.9838 19.1973 26.6276 19.39 27.0799 19.7541C27.1689 19.8259 27.1973 19.8893 27.187 19.9443Z" fill="white"/>
<path d="M27.4396 8.85225H10.25V6.6748H26.7497L27.4396 8.85225Z" fill="white"/>
<path d="M18.5452 27.4598C18.5452 27.9219 18.4058 28.2787 18.1268 28.5304C17.8477 28.7822 17.4515 28.908 16.9379 28.908H16.6165V30.2799H15.4727V26.1445H16.938C17.4728 26.1445 17.8744 26.2586 18.1427 26.4868C18.4111 26.7149 18.5452 27.0393 18.5452 27.4598ZM16.6166 27.9972H16.8251C16.9969 27.9972 17.1335 27.9502 17.2349 27.8558C17.3363 27.7615 17.3869 27.6313 17.3869 27.4654C17.3869 27.1863 17.2286 27.0468 16.912 27.0468H16.6166V27.9972Z" fill="white"/>
<path d="M22.8126 28.1245C22.8126 28.8146 22.6181 29.3464 22.2291 29.7198C21.8401 30.0932 21.2932 30.2799 20.5886 30.2799H19.2188V26.1445H20.6841C21.3637 26.1445 21.8883 26.3142 22.258 26.6537C22.6277 26.9931 22.8126 27.4834 22.8126 28.1245ZM21.6253 28.1642C21.6253 27.7851 21.5486 27.5042 21.3951 27.3212C21.2416 27.1383 21.0085 27.0469 20.6957 27.0469H20.3627V29.3634H20.6176C20.9652 29.3634 21.2199 29.2649 21.3821 29.0678C21.5442 28.8708 21.6253 28.5696 21.6253 28.1642Z" fill="white"/>
<path d="M24.7007 30.2799H23.5742V26.1445H26.0764V27.0412H24.7007V27.8303H25.9691V28.727H24.7007V30.2799Z" fill="white"/>
<path d="M26.75 11.0296H31.2085L26.75 6.6748V11.0296Z" fill="white"/>
</svg>
