<svg width="13" height="13" viewBox="0 0 13 13" fill="none" xmlns="http://www.w3.org/2000/svg">
<path d="M6.5 0C2.97635 0 0 2.97635 0 6.5C0 10.0236 2.97635 13 6.5 13C10.0236 13 13 10.0236 13 6.5C13 2.97635 10.0236 0 6.5 0ZM6.5 3.25C7.62255 3.25 8.45 4.0768 8.45 5.2C8.45 6.3232 7.62255 7.15 6.5 7.15C5.3781 7.15 4.55 6.3232 4.55 5.2C4.55 4.0768 5.3781 3.25 6.5 3.25ZM3.1811 9.6018C3.76415 8.7438 4.73655 8.1718 5.85 8.1718H7.15C8.2641 8.1718 9.23585 8.7438 9.8189 9.6018C8.9882 10.491 7.80975 11.05 6.5 11.05C5.19025 11.05 4.0118 10.491 3.1811 9.6018Z" fill="#FF77A8"/>
</svg>
