<svg width="34" height="34" viewBox="0 0 34 34" fill="none" xmlns="http://www.w3.org/2000/svg">
<path d="M0 17C0 7.61116 7.61116 0 17 0H34V17C34 26.3888 26.3888 34 17 34H0V17Z" fill="#FF0A62"/>
<path d="M17 7C11.4771 7 7 11.4771 7 17C7 22.5229 11.4771 27 17 27C22.5229 27 27 22.5229 27 17C27 11.4771 22.5229 7 17 7ZM13.4063 10.9722C13.6123 10.96 13.7985 11.0832 13.9397 11.3018L15.3069 13.8945C15.4508 14.2018 15.369 14.5307 15.1543 14.7502L14.5281 15.3765C14.4894 15.4294 14.464 15.4891 14.4634 15.5547C14.7035 16.4843 15.432 17.3417 16.0747 17.9314C16.7174 18.5211 17.4082 19.3194 18.3049 19.5085C18.4158 19.5395 18.5516 19.5505 18.6309 19.4768L19.3584 18.7359C19.6095 18.5455 19.9728 18.4533 20.241 18.6089H20.2532L22.7202 20.0652C23.0823 20.2922 23.1198 20.7309 22.8606 20.9978L21.1614 22.6836C20.9104 22.9409 20.5771 23.0275 20.2532 23.0278C18.8207 22.9849 17.4672 22.2819 16.3555 21.5593C14.5307 20.2318 12.8568 18.5852 11.8059 16.596C11.4029 15.7618 10.9294 14.6975 10.9746 13.7664C10.9787 13.4161 11.0734 13.073 11.3201 12.8472L13.0193 11.148C13.1517 11.0354 13.2826 10.9795 13.4063 10.9722Z" fill="white"/>
</svg>
