<svg width="90" height="92" viewBox="0 0 90 92" fill="none" xmlns="http://www.w3.org/2000/svg">
<g clip-path="url(#clip0_1617_759)">
<path d="M0 1C0 11 0 21 0 31C9.99999 31 20 31 30 31C30 21 30 11 30 1C20 1 9.99999 1 0 1ZM4.28571 5.28572C11.4286 5.28572 18.5714 5.28572 25.7143 5.28572C25.7143 12.4286 25.7143 19.5715 25.7143 26.7143C18.5714 26.7143 11.4286 26.7143 4.28571 26.7143C4.28571 19.5715 4.28571 12.4286 4.28571 5.28572Z" fill="white"/>
<path d="M8.56641 9.58203H21.4236V22.4391H8.56641V9.58203Z" fill="white"/>
<path d="M34.2812 1C34.2812 3.85417 34.2812 6.70833 34.2812 9.5625H38.5625V5.28125H42.8438V1C39.9896 1 37.1354 1 34.2812 1Z" fill="white"/>
<path d="M34.2812 13.8438C34.2812 16.7083 34.2812 19.5729 34.2812 22.4375H38.5625C38.5625 19.5729 38.5625 16.7083 38.5625 13.8438H34.2812Z" fill="white"/>
<path d="M68.5664 9.58203H81.4236V22.4391H68.5664V9.58203Z" fill="white"/>
<path d="M21.4375 39.5625C21.4375 42.4271 21.4375 45.2917 21.4375 48.1562C24.2916 48.1562 27.1458 48.1562 30 48.1562V43.8438H25.7188V39.5625H21.4375Z" fill="white"/>
<path d="M25.7188 35.2812V39.5625C28.5728 39.5625 31.4271 39.5625 34.2812 39.5625V35.2812C31.4271 35.2812 28.5728 35.2812 25.7188 35.2812Z" fill="white"/>
<path d="M30 48.1562C30 51.0104 30 53.8646 30 56.7188C32.8541 56.7188 35.7083 56.7188 38.5625 56.7188V52.4375H34.2812V48.1562H30Z" fill="white"/>
<path d="M8.56641 69.582H21.4236V82.4392H8.56641V69.582Z" fill="white"/>
<path d="M8.5625 39.5625V43.8438H12.8438V48.1562H17.1563C17.1563 45.2917 17.1563 42.4271 17.1563 39.5625C14.2917 39.5625 11.4271 39.5625 8.5625 39.5625Z" fill="white"/>
<path d="M17.1445 35.2852V39.571H21.4302V35.2852H17.1445Z" fill="white"/>
<path d="M0 43.8438C0 48.1354 0 52.4271 0 56.7188H4.28125V52.4375H8.5625V48.1562H4.28125V43.8438H0Z" fill="white"/>
<path d="M38.5625 56.7188V61C41.4271 61 44.2917 61 47.1562 61V56.7188C44.2917 56.7188 41.4271 56.7188 38.5625 56.7188Z" fill="white"/>
<path d="M21.4297 56.7134V52.4277H25.7154V56.7134H21.4297Z" fill="white"/>
<path d="M60 48.1562V52.4375C55.7188 52.4375 51.4376 52.4375 47.1562 52.4375V56.7188H51.4375V65.3125H47.1562V69.5937H51.4375V73.875H55.6875V78.1562H60V73.8437C64.3088 73.8481 69.0068 73.8765 72.8439 73.875V65.2812H77.125V61H72.8439V52.4375H64.2814V48.1562H60ZM68.5314 56.7188C68.5433 61.2582 68.5625 65.0835 68.5625 69.5625C64.2813 69.5625 60 69.5625 55.7188 69.5625C55.7188 65.2917 55.7188 61.0208 55.7188 56.75C60.3376 56.759 63.991 56.7188 68.5314 56.7188Z" fill="white"/>
<path d="M38.5625 43.8438C38.5625 46.7083 38.5625 49.5729 38.5625 52.4375H42.8438C42.8438 49.5729 42.8438 46.7083 42.8438 43.8438H38.5625Z" fill="white"/>
<path d="M59.9609 65.2857V61H64.2466V65.2857H59.9609Z" fill="white"/>
<path d="M64.3164 48.1255V43.8398H68.6021V48.1255H64.3164Z" fill="white"/>
<path d="M42.8438 69.5625V73.8438C39.9896 73.8438 37.1354 73.8438 34.2812 73.8438C34.2812 76.7083 34.2812 79.5729 34.2812 82.4375H38.5625V78.1562C41.4271 78.1562 44.2917 78.1562 47.1562 78.1562C47.1562 75.2917 47.1562 72.4271 47.1562 69.5625H42.8438Z" fill="white"/>
<path d="M8.5625 52.4375V56.7188C11.4271 56.7188 14.2917 56.7188 17.1563 56.7188V52.4375C14.2917 52.4375 11.4271 52.4375 8.5625 52.4375Z" fill="white"/>
<path d="M51.4375 26.7148C51.4375 29.5689 51.4375 32.4231 51.4375 35.2773H55.75C55.75 32.4231 55.75 29.5689 55.75 26.7148H51.4375Z" fill="white"/>
<path d="M72.8438 43.8438C72.8438 46.7083 72.8438 49.5729 72.8438 52.4375H77.1561V48.1562H81.4374V43.8438C78.5728 43.8438 75.7083 43.8438 72.8438 43.8438Z" fill="white"/>
<path d="M68.5625 35.2812C68.5625 38.1354 68.5625 40.9896 68.5625 43.8438H72.8438C72.8438 40.9896 72.8438 38.1354 72.8438 35.2812H68.5625Z" fill="white"/>
<path d="M77.125 61.0005V56.7148H81.4107V61.0005H77.125Z" fill="white"/>
<path d="M72.8438 82.4375V86.7188H68.5625V91C71.4271 91 74.2917 91 77.1562 91C77.1562 88.1458 77.1562 85.2917 77.1562 82.4375H72.8438Z" fill="white"/>
<path d="M34.2812 61C34.2812 63.8542 34.2812 66.7083 34.2812 69.5625C37.1354 69.5625 39.9896 69.5625 42.8438 69.5625V65.2812H38.5625V61H34.2812Z" fill="white"/>
<path d="M47.1562 86.7188V90.9999C50.0104 90.9999 52.8646 90.9999 55.7188 90.9999V86.7188C52.8646 86.7188 50.0104 86.7188 47.1562 86.7188Z" fill="white"/>
<path d="M81.4101 65.3125V69.5938H77.1289V73.875C79.9831 73.875 82.8372 73.875 85.6914 73.875V69.5938H89.9726V65.3125C87.1185 65.3125 84.2643 65.3125 81.4101 65.3125Z" fill="white"/>
<path d="M77.1562 78.1562V82.4376C80.0104 82.4376 82.8647 82.4376 85.7189 82.4376V78.1562C82.8647 78.1562 80.0104 78.1562 77.1562 78.1562Z" fill="white"/>
<path d="M85.7188 82.4375V86.7188H81.4375V91C84.2917 91 87.1458 91 90 91C90 88.1458 90 85.2917 90 82.4375H85.7188Z" fill="white"/>
<path d="M72.8438 78.1607V73.875H77.1294V78.1607H72.8438Z" fill="white"/>
<path d="M47.1445 0.978516C47.1445 3.8431 47.1445 6.70768 47.1445 9.57226H51.4258V5.25976H55.707V0.978516C52.8528 0.978516 49.9987 0.978516 47.1445 0.978516Z" fill="white"/>
<path d="M85.6992 78.1607V73.875H89.9849V78.1607H85.6992Z" fill="white"/>
<path d="M85.7188 39.5625C85.7188 42.4271 85.7188 45.2917 85.7188 48.1562H89.9999C89.9999 45.2917 89.9999 42.4271 89.9999 39.5625H85.7188Z" fill="white"/>
<path d="M81.4102 48.1523C81.4102 51.0064 81.4102 53.8606 81.4102 56.7148H85.6915V60.996H89.9727C89.9727 58.1418 89.9727 55.2877 89.9727 52.4335H85.6915V48.1523H81.4102Z" fill="white"/>
<path d="M77.1562 35.2812V39.5625C80.0104 39.5625 82.8647 39.5625 85.7189 39.5625V35.2812C82.8647 35.2812 80.0104 35.2812 77.1562 35.2812Z" fill="white"/>
<path d="M47.1445 22.4277V26.7134H51.4302V22.4277H47.1445Z" fill="white"/>
<path d="M34.2812 86.7188V90.9999C37.1354 90.9999 39.9896 90.9999 42.8438 90.9999V86.7188C39.9896 86.7188 37.1354 86.7188 34.2812 86.7188Z" fill="white"/>
<path d="M42.8555 86.7134V82.4277H47.1412V86.7134H42.8555Z" fill="white"/>
<path d="M42.8555 22.4283V18.1426H47.1412V22.4283H42.8555Z" fill="white"/>
<path d="M17.1445 48.1426V52.4283H21.4302V48.1426H17.1445Z" fill="white"/>
<path d="M38.5625 9.5625V13.8438C41.4271 13.8438 44.2917 13.8438 47.1562 13.8438V9.5625C44.2917 9.5625 41.4271 9.5625 38.5625 9.5625Z" fill="white"/>
<path d="M34.2852 43.858V39.5723H38.571V43.858H34.2852Z" fill="white"/>
<path d="M51.4297 82.4283V78.1426H55.7154V82.4283H51.4297Z" fill="white"/>
<path d="M0 35.2812V39.5625C2.85416 39.5625 5.70834 39.5625 8.5625 39.5625V35.2812C5.70834 35.2812 2.85416 35.2812 0 35.2812Z" fill="white"/>
<path d="M60 1C60 11 60 21 60 31C70 31 80 31 90 31C90 21 90 11 90 1C80 1 70 1 60 1ZM64.2857 5.28572C71.4286 5.28572 78.5714 5.28572 85.7143 5.28572C85.7143 12.4286 85.7143 19.5715 85.7143 26.7143C78.5714 26.7143 71.4286 26.7143 64.2857 26.7143C64.2857 19.5715 64.2857 12.4286 64.2857 5.28572Z" fill="white"/>
<path d="M0 61C0 71 0 81 0 91C9.99999 91 20 91 30 91C30 81 30 71 30 61C20 61 9.99999 61 0 61ZM4.28571 65.2857C11.4286 65.2857 18.5714 65.2857 25.7143 65.2857C25.7143 72.4286 25.7143 79.5714 25.7143 86.7143C18.5714 86.7143 11.4286 86.7143 4.28571 86.7143C4.28571 79.5714 4.28571 72.4286 4.28571 65.2857Z" fill="white"/>
<path d="M38.5938 22.4375V26.7188H34.3125C34.3125 29.5729 34.3125 32.4271 34.3125 35.2812H38.5938V31H42.875C42.875 28.1458 42.875 25.2917 42.875 22.4375H38.5938Z" fill="white"/>
<path d="M42.875 31C42.875 35.2812 42.875 39.5625 42.875 43.8438H47.1562V39.5625H51.4375V35.2812H47.1562V31H42.875Z" fill="white"/>
<path d="M51.4375 9.59375C51.4375 13.875 51.4375 18.1562 51.4375 22.4375H55.7188C55.7188 18.1562 55.7188 13.875 55.7188 9.59375H51.4375Z" fill="white"/>
<path d="M47.1523 43.8574V48.1387C50.0064 48.1387 52.8606 48.1387 55.7148 48.1387V43.8574C52.8606 43.8574 50.0064 43.8574 47.1523 43.8574Z" fill="white"/>
<path d="M55.75 35.2773C55.75 38.1418 55.75 41.0064 55.75 43.871H60.0312V39.5585H64.3125V35.2773C61.4583 35.2773 58.6042 35.2773 55.75 35.2773Z" fill="white"/>
<path d="M55.7188 82.4375V86.7188H60V91.0312H64.3125C64.3125 88.1667 64.3125 85.3021 64.3125 82.4375C61.4479 82.4375 58.5833 82.4375 55.7188 82.4375Z" fill="white"/>
<path d="M64.293 78.1426V82.4239C67.1471 82.4239 70.0013 82.4239 72.8555 82.4239V78.1426C70.0013 78.1426 67.1471 78.1426 64.293 78.1426Z" fill="white"/>
</g>
<defs>
<clipPath id="clip0_1617_759">
<rect width="90" height="92" fill="white"/>
</clipPath>
</defs>
</svg>
