<svg width="46" height="40" viewBox="0 0 46 40" fill="none" xmlns="http://www.w3.org/2000/svg">
<path opacity="0.5" d="M3.67077 10.8979C1.3983 15.109 1.11585 20.3215 2.77205 24.8151C4.42825 29.3087 7.97175 33.0448 12.2984 35.0861C17.0744 37.3457 22.5181 37.564 27.7948 37.6667C30.8119 37.7309 33.8932 37.7566 36.7691 36.8194C39.6322 35.8821 42.3026 33.7766 43.1115 30.875C43.6635 28.9107 43.3297 26.8179 42.8419 24.8408C41.3012 18.5755 38.13 12.6183 33.3155 8.33011C29.7078 5.12042 25.15 2.89931 20.3355 2.27021C16.2143 1.73098 12.1829 2.97634 8.74208 5.313C6.63652 6.72526 4.87761 8.65108 3.67077 10.8979Z" fill="#61A8DE"/>
<path opacity="0.5" d="M43.0732 8.50927C40.5825 4.4137 36.2429 1.53781 31.5311 0.70329C26.8193 -0.13123 21.8122 1.02426 17.845 3.72041C13.4798 6.699 10.5397 11.2824 7.77938 15.776C6.20021 18.3438 4.62104 20.9886 3.97911 23.9415C3.33717 26.8944 3.79936 30.2453 5.89208 32.4279C7.30435 33.8915 9.28152 34.6747 11.233 35.2524C17.4213 37.0884 24.1617 37.3708 30.2986 35.3937C34.8949 33.9044 39.1188 31.0927 42.0846 27.2667C44.6395 23.98 45.6024 19.8716 45.3328 15.7247C45.1531 13.1826 44.3827 10.679 43.0732 8.50927Z" fill="#61A8DE"/>
<path d="M11.1711 8.27678C7.5249 12.9629 6.81877 19.4337 3.17255 24.1327C2.44074 25.0827 1.59338 25.9429 0.951446 26.9444C0.309507 27.9458 -0.139849 29.1526 0.0398943 30.3338C0.283831 31.8873 1.52919 33.0685 2.77455 34.0185C5.29095 35.9315 8.14116 37.408 11.1583 38.358C21.8145 41.7475 34.1525 37.7803 39.532 27.7018C39.8786 27.0342 40.1996 26.3538 40.482 25.6605C42.2024 21.3338 42.3822 16.3524 40.6233 12.0385C36.7459 2.53784 24.5234 -0.261003 15.8829 4.36096C14.1112 5.31103 12.5192 6.58206 11.261 8.16123C11.2225 8.19975 11.1968 8.23827 11.1711 8.27678Z" fill="#61A8DE"/>
<path fill-rule="evenodd" clip-rule="evenodd" d="M30.6414 14.6065L27.9725 27.4439C27.9097 27.747 27.5542 27.8843 27.3035 27.7021L23.6602 25.0571C23.4391 24.8965 23.1375 24.905 22.9257 25.0776L20.9058 26.7242C20.6714 26.9159 20.3181 26.8091 20.2284 26.5203L18.8258 22.0096L15.2021 20.6572C14.834 20.5193 14.8309 19.9996 15.1979 19.8583L30.0695 14.1212C30.3848 13.9993 30.7101 14.2754 30.6414 14.6065Z" fill="white"/>
<path fill-rule="evenodd" clip-rule="evenodd" d="M27.0889 16.9289L20.0069 21.2907C19.7355 21.4582 19.6077 21.786 19.6953 22.0929L20.461 24.7834C20.5155 24.974 20.7921 24.9545 20.8186 24.7576L21.0176 23.2821C21.0552 23.0044 21.1876 22.7483 21.3931 22.5571L27.2377 17.1242C27.3472 17.0229 27.2162 16.8508 27.0889 16.9289Z" fill="white"/>
<path fill-rule="evenodd" clip-rule="evenodd" d="M27.4613 17.172L20.4154 21.2967C20.1453 21.4551 20.0182 21.7651 20.1053 22.0553L20.8671 24.5995C20.9213 24.7798 21.1965 24.7614 21.2229 24.5751L21.4209 23.1799C21.4583 22.9172 21.59 22.6751 21.7945 22.4943L27.6093 17.3567C27.7182 17.2608 27.5879 17.0981 27.4613 17.172Z" fill="#61A8DE"/>
</svg>
