<svg width="69" height="41" viewBox="0 0 69 41" fill="none" xmlns="http://www.w3.org/2000/svg">
<path fill-rule="evenodd" clip-rule="evenodd" d="M34.8436 40.7343C53.0085 40.7343 68.0977 22.9978 68.0977 22.9978C69.2779 21.7345 69.3109 19.6481 68.1349 18.3745C68.1349 18.3745 53.7918 0.686523 35.0003 0.686523C16.2087 0.686523 1.86562 18.3745 1.86562 18.3745C0.705858 19.6647 0.699835 21.7587 1.88612 23.0171C1.88612 23.0171 16.679 40.7342 34.8439 40.7342L34.8436 40.7343ZM35.0003 34.845C42.784 34.845 49.0937 28.517 49.0937 20.7108C49.0937 12.9047 42.7836 6.57658 35.0003 6.57658C27.2162 6.57658 20.9069 12.905 20.9069 20.7108C20.9069 28.5169 27.2166 34.845 35.0003 34.845ZM35.0003 26.9926C38.4597 26.9926 41.2642 24.1803 41.2642 20.711C41.2642 17.2417 38.4598 14.4289 35.0003 14.4289C31.5409 14.4289 28.7361 17.2417 28.7361 20.711C28.7361 24.1803 31.5409 26.9926 35.0003 26.9926V26.9926Z" fill="#010101"/>
</svg>
