<svg width="34" height="34" viewBox="0 0 34 34" fill="none" xmlns="http://www.w3.org/2000/svg">
<path d="M0 17C0 7.61116 7.61116 0 17 0H34V17C34 26.3888 26.3888 34 17 34H0V17Z" fill="#FF0A62"/>
<path fill-rule="evenodd" clip-rule="evenodd" d="M16.8829 7.12305C17.3327 7.18198 17.7691 7.41217 18.1879 7.80569C18.6787 8.26675 19.1351 8.95101 19.5205 9.80717C19.6918 10.1879 19.8489 10.6023 19.9898 11.0457H16.8828L16.8829 7.12305Z" fill="white"/>
<path fill-rule="evenodd" clip-rule="evenodd" d="M16.4189 7.12305V11.0455H13.3125C13.4534 10.6021 13.6106 10.1877 13.782 9.807C14.1674 8.95081 14.6242 8.26658 15.1148 7.80553C15.5334 7.41201 15.9695 7.18214 16.4189 7.12305Z" fill="white"/>
<path fill-rule="evenodd" clip-rule="evenodd" d="M15.2125 7.12695C15.0693 7.22663 14.9302 7.3401 14.796 7.46641C14.2437 7.98539 13.7611 8.71949 13.3575 9.61595C13.1598 10.0551 12.9814 10.5337 12.8242 11.0454H8.86328C10.3284 8.97911 12.5955 7.52214 15.2126 7.12699L15.2125 7.12695Z" fill="white"/>
<path fill-rule="evenodd" clip-rule="evenodd" d="M18.0898 7.127C20.7066 7.52246 22.9738 8.97928 24.4396 11.0452H20.4777C20.3208 10.5335 20.1423 10.0548 19.9448 9.6158C19.5414 8.71937 19.0587 7.98528 18.5063 7.46608C18.372 7.33994 18.2331 7.22647 18.0899 7.12695L18.0898 7.127Z" fill="white"/>
<path fill-rule="evenodd" clip-rule="evenodd" d="M24.7414 11.4961C25.6236 12.9021 26.149 14.5547 26.1914 16.3281H21.2414C21.223 14.5716 20.9975 12.9289 20.6133 11.5119H24.6552C24.6844 11.512 24.7138 11.507 24.7411 11.4966L24.7414 11.4961Z" fill="white"/>
<path fill-rule="evenodd" clip-rule="evenodd" d="M8.55288 11.5107H12.6894C12.305 12.9281 12.0792 14.5707 12.0609 16.327H7.11328C7.15549 14.5604 7.6769 12.9131 8.55292 11.5107H8.55288Z" fill="white"/>
<path fill-rule="evenodd" clip-rule="evenodd" d="M13.1744 11.5107H16.4196V16.327H12.5273C12.5465 14.5583 12.7825 12.9094 13.1744 11.5107Z" fill="white"/>
<path fill-rule="evenodd" clip-rule="evenodd" d="M16.8829 11.5107H20.1286C20.5202 12.9096 20.7561 14.5585 20.775 16.327H16.8828L16.8829 11.5107Z" fill="white"/>
<path fill-rule="evenodd" clip-rule="evenodd" d="M7.11336 16.793H12.0609C12.079 18.5256 12.2989 20.1472 12.6736 21.5515H8.51606C7.66248 20.1615 7.15484 18.5355 7.11328 16.793H7.11336Z" fill="white"/>
<path fill-rule="evenodd" clip-rule="evenodd" d="M12.5273 16.793H16.4196V21.5515H13.1575C12.7757 20.1651 12.5462 18.5375 12.5273 16.793Z" fill="white"/>
<path fill-rule="evenodd" clip-rule="evenodd" d="M16.8828 16.793H20.775C20.7562 18.5373 20.527 20.1649 20.1453 21.5515H16.8828V16.793Z" fill="white"/>
<path fill-rule="evenodd" clip-rule="evenodd" d="M21.2407 16.793H26.1908C26.1489 18.5474 25.6343 20.1838 24.7697 21.5802C24.7348 21.5609 24.6949 21.551 24.6549 21.5515H20.6289C21.0034 20.1474 21.2231 18.5258 21.2411 16.793L21.2407 16.793Z" fill="white"/>
<path fill-rule="evenodd" clip-rule="evenodd" d="M8.82031 22.0166H12.8051C12.9666 22.5512 13.1514 23.0499 13.3567 23.5062C13.7603 24.4028 14.2429 25.1369 14.7952 25.6561C14.9296 25.7824 15.0686 25.8959 15.2117 25.9955C12.5695 25.5965 10.2841 24.1152 8.8204 22.0166H8.82031Z" fill="white"/>
<path fill-rule="evenodd" clip-rule="evenodd" d="M13.293 22.0166H16.418V25.9994C15.9687 25.9403 15.5326 25.7103 15.1139 25.317C14.6233 24.8557 14.1665 24.1715 13.7811 23.3153C13.6021 22.9176 13.4387 22.4827 13.293 22.0168V22.0166Z" fill="white"/>
<path fill-rule="evenodd" clip-rule="evenodd" d="M16.8828 22.0166H20.0085C19.8629 22.4825 19.6996 22.9176 19.5205 23.3151C19.1353 24.1715 18.6786 24.8556 18.1879 25.3168C17.7691 25.7103 17.3327 25.9403 16.8829 25.9994L16.8828 22.0166Z" fill="white"/>
<path fill-rule="evenodd" clip-rule="evenodd" d="M20.4959 22.0166H24.4816C23.0176 24.1148 20.7317 25.596 18.0898 25.9954C18.233 25.8957 18.372 25.7822 18.5063 25.6561C19.0587 25.1369 19.5413 24.4028 19.9447 23.5062C20.1499 23.05 20.3347 22.551 20.4961 22.0166L20.4959 22.0166Z" fill="white"/>
</svg>
