<svg width="46" height="40" viewBox="0 0 46 40" fill="none" xmlns="http://www.w3.org/2000/svg">
<path opacity="0.5" d="M3.94811 10.8754C1.67565 15.0865 1.39319 20.2991 3.04939 24.7926C4.7056 29.2862 8.2491 33.0223 12.5758 35.0637C17.3518 37.3233 22.7954 37.5415 28.0722 37.6443C31.0893 37.7084 34.1706 37.7341 37.0465 36.7969C39.9095 35.8597 42.58 33.7541 43.3888 30.8525C43.9409 28.8882 43.6071 26.7955 43.1192 24.8183C41.5786 18.553 38.4074 12.5958 33.5928 8.30765C29.9851 5.09796 25.4274 2.87685 20.6128 2.24775C16.4916 1.70852 12.4602 2.95388 9.01942 5.29053C6.9267 6.71564 5.15495 8.64146 3.94811 10.8754Z" fill="url(#paint0_linear_1410_1565)"/>
<path opacity="0.5" d="M43.6318 8.69188C41.141 4.59631 36.8015 1.72043 32.0897 0.885908C27.3779 0.0513874 22.3708 1.20688 18.4036 3.90302C14.0384 6.88161 11.0983 11.4651 8.33798 15.9586C6.75881 18.5264 5.17964 21.1712 4.5377 24.1241C3.89576 27.077 4.35795 30.4279 6.45067 32.6105C7.86294 34.0741 9.84012 34.8573 11.7916 35.435C17.9799 37.271 24.7203 37.5534 30.8572 35.5763C35.4535 34.087 39.6774 31.2753 42.6432 27.4493C45.1981 24.1626 46.161 20.0542 45.8914 15.9073C45.7245 13.3652 44.9542 10.8616 43.6318 8.69188Z" fill="url(#paint1_linear_1410_1565)"/>
<path d="M11.4563 8.26897C7.81005 12.9551 7.10392 19.4259 3.45771 24.1249C2.7259 25.0749 1.87854 25.9351 1.2366 26.9365C0.594664 27.938 0.145308 29.1448 0.325051 30.326C0.568987 31.8795 1.81434 33.0606 3.05971 34.0107C5.57611 35.9237 8.42631 37.4001 11.4434 38.3502C22.0996 41.7397 34.4377 37.7725 39.8171 27.694C40.1766 27.0264 40.4847 26.346 40.7672 25.6527C42.4876 21.326 42.6673 16.3446 40.9084 12.0307C37.0311 2.53003 24.8086 -0.268815 16.1681 4.35314C14.3963 5.30321 12.8043 6.57425 11.5461 8.15342C11.5076 8.19194 11.4819 8.23046 11.4563 8.26897Z" fill="url(#paint2_linear_1410_1565)"/>
<path opacity="0.6" d="M21.9962 37.1418C31.1715 37.1418 38.6096 29.7037 38.6096 20.5284C38.6096 11.3531 31.1715 3.91504 21.9962 3.91504C12.8209 3.91504 5.38281 11.3531 5.38281 20.5284C5.38281 29.7037 12.8209 37.1418 21.9962 37.1418Z" fill="url(#paint3_linear_1410_1565)"/>
<path d="M33.1944 17.7945C33.1944 15.3038 31.1787 13.2881 28.688 13.2881H17.1588C14.668 13.2881 12.6523 15.3038 12.6523 17.7945V23.1611C12.6523 25.6518 14.668 27.6675 17.1588 27.6675H28.688C31.1787 27.6675 33.1944 25.6518 33.1944 23.1611V17.7945ZM26.4155 20.8758L21.2415 23.4307C21.0361 23.5463 20.3556 23.3922 20.3556 23.1611V17.91C20.3556 17.6789 21.0489 17.5249 21.2543 17.6404L26.1973 20.3366C26.4027 20.465 26.6209 20.7731 26.4155 20.8758Z" fill="white"/>
<defs>
<linearGradient id="paint0_linear_1410_1565" x1="7.2867" y1="6.6232" x2="38.1192" y2="37.4557" gradientUnits="userSpaceOnUse">
<stop stop-color="#FF0000"/>
<stop offset="1" stop-color="#850000"/>
</linearGradient>
<linearGradient id="paint1_linear_1410_1565" x1="45.6156" y1="13.7199" x2="3.42016" y2="24.712" gradientUnits="userSpaceOnUse">
<stop stop-color="#FF0000"/>
<stop offset="1" stop-color="#850000"/>
</linearGradient>
<linearGradient id="paint2_linear_1410_1565" x1="9.62815" y1="9.93442" x2="34.255" y2="34.5612" gradientUnits="userSpaceOnUse">
<stop stop-color="#FF0000"/>
<stop offset="1" stop-color="#850000"/>
</linearGradient>
<linearGradient id="paint3_linear_1410_1565" x1="10.2454" y1="8.78119" x2="33.7353" y2="32.2712" gradientUnits="userSpaceOnUse">
<stop stop-color="#FF0000"/>
<stop offset="1" stop-color="#850000"/>
</linearGradient>
</defs>
</svg>
